<svg id="svg" version="1.1" width="400" height="400" viewBox="0 0 400 400" xmlns="http://www.w3.org/2000/svg" xmlns:xlink="http://www.w3.org/1999/xlink" ><g id="svgg"><path id="path0" d="M95.883 63.097 C 92.442 63.275,92.400 63.370,92.400 70.964 C 92.400 76.263,92.461 76.731,93.242 77.438 C 94.063 78.181,96.292 78.205,184.142 78.400 C 279.525 78.612,275.395 78.522,276.403 80.405 C 277.151 81.804,275.337 85.575,273.434 86.576 C 272.264 87.191,271.730 87.805,271.326 89.000 C 270.713 90.812,269.866 91.600,268.531 91.600 C 267.857 91.600,267.552 91.890,267.375 92.700 C 266.782 95.419,266.354 95.998,264.750 96.254 C 263.465 96.460,263.200 96.662,263.200 97.432 C 263.200 99.209,262.344 100.384,260.735 100.818 C 259.483 101.155,259.200 101.412,259.200 102.214 C 259.200 102.767,258.610 103.855,257.853 104.699 C 257.112 105.524,256.382 106.600,256.229 107.090 C 256.077 107.579,255.406 108.369,254.737 108.845 C 254.068 109.321,253.199 110.240,252.806 110.887 C 252.413 111.533,251.035 113.159,249.745 114.499 C 248.455 115.840,247.040 117.671,246.600 118.568 C 246.087 119.615,245.336 120.404,244.507 120.769 C 243.580 121.177,243.031 121.816,242.571 123.021 C 241.983 124.560,241.286 125.189,239.576 125.722 C 239.232 125.829,238.731 126.653,238.462 127.552 C 237.942 129.285,237.071 130.000,235.477 130.000 C 234.652 130.000,234.464 130.241,234.251 131.571 C 234.092 132.565,233.632 133.431,233.000 133.929 C 232.450 134.361,232.000 134.900,232.000 135.125 C 232.000 135.350,231.280 136.284,230.400 137.200 C 229.495 138.142,228.800 139.259,228.800 139.771 C 228.800 140.773,227.985 141.595,226.265 142.330 C 225.547 142.637,224.913 143.364,224.540 144.307 C 224.200 145.169,223.284 146.276,222.375 146.926 C 221.509 147.545,220.800 148.305,220.800 148.615 C 220.800 149.176,219.454 150.759,215.949 154.319 C 214.931 155.354,213.823 156.740,213.488 157.400 C 213.153 158.060,211.792 159.742,210.463 161.137 C 208.994 162.679,207.998 164.091,207.923 164.737 C 207.832 165.522,207.540 165.837,206.805 165.940 C 205.372 166.142,204.084 167.610,203.932 169.214 C 203.813 170.460,203.659 170.620,202.400 170.800 C 201.124 170.982,200.944 171.177,200.369 173.000 C 199.740 174.993,198.664 175.981,197.108 175.994 C 196.678 175.998,196.326 176.418,196.180 177.100 C 195.725 179.225,195.186 180.047,193.891 180.588 C 193.017 180.953,192.423 181.574,192.097 182.467 C 191.828 183.200,190.572 184.894,189.304 186.231 C 185.355 190.399,184.380 191.579,183.476 193.288 C 182.994 194.199,182.060 195.241,181.400 195.604 C 180.351 196.181,179.944 196.877,179.363 199.088 C 179.292 199.357,178.732 199.696,178.117 199.842 C 176.516 200.223,175.600 201.158,175.600 202.413 C 175.600 203.652,174.950 204.322,173.326 204.756 C 172.554 204.963,172.090 205.425,171.851 206.229 C 171.047 208.925,170.890 209.115,169.225 209.396 C 167.933 209.614,167.557 209.870,167.399 210.635 C 167.289 211.166,167.105 212.058,166.988 212.617 C 166.854 213.262,166.158 214.008,165.088 214.654 C 163.778 215.446,163.221 216.136,162.600 217.737 C 161.982 219.330,161.458 219.982,160.301 220.600 C 159.477 221.040,158.802 221.606,158.801 221.857 C 158.800 222.108,158.021 223.188,157.069 224.257 C 156.118 225.326,154.993 226.800,154.569 227.533 C 154.146 228.267,153.215 229.113,152.500 229.413 C 151.555 229.810,151.200 230.217,151.200 230.903 C 151.200 232.228,150.313 233.291,148.774 233.809 C 147.721 234.163,147.371 234.567,147.028 235.826 C 146.679 237.102,146.282 237.551,144.929 238.200 C 143.538 238.867,143.217 239.244,143.001 240.464 C 142.713 242.089,142.036 242.816,140.100 243.583 C 139.224 243.929,138.790 244.375,138.769 244.949 C 138.712 246.490,136.654 249.388,135.522 249.522 C 134.662 249.624,134.346 250.041,133.618 252.038 C 132.868 254.096,132.579 254.464,131.552 254.670 C 130.626 254.855,130.137 255.345,129.373 256.854 C 128.830 257.924,128.247 258.800,128.075 258.800 C 127.904 258.800,127.084 259.692,126.253 260.782 C 125.421 261.873,124.407 262.871,123.998 263.001 C 123.590 263.130,123.139 263.766,122.997 264.413 C 122.717 265.689,121.226 267.078,119.735 267.452 C 119.036 267.627,118.800 267.967,118.800 268.796 C 118.800 269.522,118.282 270.468,117.300 271.534 C 114.548 274.520,112.872 276.605,112.413 277.612 C 112.163 278.160,111.435 278.910,110.794 279.278 C 110.150 279.647,109.251 280.751,108.782 281.748 C 108.171 283.048,107.638 283.617,106.868 283.788 C 106.045 283.971,105.547 284.567,104.697 286.387 C 103.733 288.452,103.437 288.766,102.347 288.875 C 101.205 288.989,101.017 289.226,100.110 291.686 C 99.407 293.593,98.870 294.447,98.260 294.632 C 96.874 295.051,95.695 296.368,95.427 297.797 C 95.223 298.883,94.833 299.297,93.289 300.063 C 91.721 300.841,91.366 301.224,91.200 302.318 C 91.045 303.340,90.646 303.834,89.425 304.518 C 88.305 305.145,87.752 305.777,87.513 306.702 C 87.289 307.567,86.650 308.353,85.611 309.040 C 84.598 309.711,83.956 310.488,83.790 311.248 C 83.648 311.893,82.917 312.911,82.166 313.510 L 80.800 314.600 80.800 321.257 L 80.800 327.914 83.500 328.567 C 87.267 329.479,302.637 329.366,303.739 328.451 C 305.245 327.201,304.283 314.677,302.647 314.238 C 302.181 314.113,258.510 314.006,205.600 313.999 C 105.187 313.987,106.611 314.010,105.577 312.377 C 104.735 311.046,105.148 309.612,106.568 308.935 C 107.559 308.462,108.118 307.808,108.594 306.560 C 108.956 305.613,109.568 304.737,109.955 304.614 C 111.175 304.227,112.400 302.807,112.400 301.779 C 112.400 301.003,112.787 300.601,114.200 299.915 C 115.659 299.206,116.000 298.840,116.000 297.982 C 116.000 296.809,116.853 295.864,118.464 295.252 C 119.207 294.969,119.610 294.450,119.807 293.524 C 120.166 291.837,120.988 290.910,122.400 290.600 C 123.310 290.400,123.596 290.039,123.945 288.652 C 124.370 286.966,125.015 286.382,127.100 285.798 C 127.595 285.660,128.000 285.293,128.000 284.984 C 128.000 283.250,129.926 280.137,131.231 279.763 C 132.353 279.441,132.653 279.097,133.073 277.646 C 133.728 275.382,134.253 274.800,135.641 274.800 C 136.563 274.800,136.832 274.586,137.030 273.700 C 137.541 271.403,137.699 271.160,139.117 270.489 C 140.163 269.994,140.679 269.427,140.951 268.475 C 141.223 267.526,141.766 266.928,142.865 266.367 C 143.995 265.791,144.400 265.333,144.400 264.633 C 144.400 263.715,146.754 261.200,147.614 261.200 C 147.826 261.200,148.000 260.813,148.000 260.340 C 148.000 259.840,148.794 258.711,149.900 257.638 C 150.945 256.625,152.325 255.025,152.966 254.082 C 153.607 253.139,154.730 251.842,155.462 251.199 C 156.194 250.556,157.200 249.179,157.697 248.138 C 158.386 246.695,158.889 246.172,159.819 245.933 C 160.777 245.686,161.249 245.171,162.019 243.528 C 162.806 241.851,163.275 241.348,164.393 240.985 C 165.541 240.613,165.849 240.267,166.144 239.018 C 166.400 237.936,167.288 236.716,169.251 234.749 C 170.763 233.234,172.000 231.648,172.000 231.224 C 172.000 230.764,172.680 229.996,173.687 229.320 C 174.813 228.564,175.501 227.743,175.756 226.853 C 176.001 226.000,176.677 225.163,177.633 224.531 C 178.455 223.987,179.337 223.034,179.595 222.413 C 179.852 221.792,180.768 220.716,181.631 220.023 C 182.494 219.330,183.200 218.517,183.200 218.217 C 183.200 217.917,183.785 217.180,184.500 216.579 C 185.215 215.979,186.160 214.851,186.600 214.074 C 187.040 213.297,187.940 212.367,188.600 212.008 C 189.260 211.650,190.109 210.736,190.486 209.978 C 191.457 208.028,192.739 206.473,193.602 206.199 C 194.527 205.906,196.000 203.464,196.000 202.226 C 196.000 201.072,196.651 200.510,198.193 200.335 C 199.122 200.230,199.462 199.935,199.732 199.000 C 200.393 196.711,201.016 195.801,202.013 195.666 C 203.319 195.489,203.714 195.058,204.197 193.283 C 204.518 192.103,204.936 191.644,206.245 191.035 C 207.554 190.426,207.963 189.977,208.245 188.841 C 208.477 187.907,209.035 187.134,209.857 186.606 C 210.548 186.163,211.660 184.900,212.328 183.800 C 212.995 182.700,214.928 180.360,216.622 178.600 C 218.316 176.840,220.020 174.704,220.408 173.853 C 220.856 172.871,221.678 171.990,222.657 171.443 C 223.950 170.720,224.220 170.344,224.322 169.120 C 224.464 167.428,224.791 167.114,227.100 166.454 C 228.659 166.008,228.800 165.858,228.800 164.646 C 228.800 163.083,229.723 162.120,231.400 161.933 C 232.476 161.814,232.623 161.629,232.822 160.135 C 233.103 158.034,233.672 157.351,235.414 157.024 C 236.452 156.829,236.800 156.561,236.800 155.956 C 236.800 154.808,237.425 153.781,239.286 151.869 C 240.179 150.951,241.310 149.570,241.799 148.800 C 242.645 147.467,244.362 145.484,247.339 142.400 C 248.082 141.630,249.003 140.330,249.385 139.511 C 249.869 138.475,250.496 137.872,251.449 137.528 C 252.596 137.113,252.856 136.789,253.059 135.524 C 253.339 133.771,253.696 133.402,255.586 132.914 C 256.770 132.608,257.033 132.319,257.386 130.930 C 257.931 128.788,258.647 128.000,260.049 128.000 C 261.028 128.000,261.200 127.841,261.200 126.938 C 261.200 126.354,261.650 125.286,262.200 124.564 C 262.750 123.843,263.200 123.076,263.200 122.858 C 263.200 122.641,263.720 122.349,264.355 122.210 C 265.294 122.004,265.713 121.505,266.589 119.552 C 267.182 118.230,267.968 117.057,268.334 116.946 C 269.708 116.526,270.158 116.112,270.573 114.888 C 270.808 114.196,271.900 112.735,273.000 111.641 C 275.685 108.971,276.761 107.713,277.656 106.195 C 278.069 105.495,279.048 104.580,279.831 104.161 C 280.780 103.654,281.330 103.031,281.479 102.292 C 281.733 101.036,283.697 99.200,284.786 99.200 C 285.286 99.200,285.589 98.796,285.763 97.900 C 285.901 97.185,286.551 95.808,287.207 94.840 C 287.863 93.872,288.401 92.972,288.403 92.840 C 288.404 92.708,288.912 92.312,289.531 91.959 C 290.151 91.607,291.046 90.533,291.521 89.573 C 292.060 88.484,292.863 87.596,293.656 87.214 C 294.355 86.876,295.050 86.330,295.199 86.000 C 296.451 83.235,296.656 82.997,297.877 82.877 C 299.088 82.759,299.152 82.655,299.792 79.779 C 300.679 75.793,300.540 63.784,299.600 63.191 C 299.045 62.840,102.602 62.750,95.883 63.097 " stroke="none" fill="#f9efef" fill-rule="evenodd"></path><path id="path1" d="M0.000 200.000 L 0.000 400.000 200.000 400.000 L 400.000 400.000 400.000 200.000 L 400.000 0.000 200.000 0.000 L 0.000 0.000 0.000 200.000 M303.958 62.562 C 304.757 63.285,304.800 63.706,304.800 70.882 C 304.800 79.560,304.526 80.660,302.312 80.874 C 301.138 80.988,300.992 81.153,300.740 82.637 C 300.244 85.566,299.392 87.094,298.097 87.379 C 297.211 87.573,296.732 88.052,296.160 89.316 C 295.742 90.239,294.828 91.356,294.129 91.797 C 293.430 92.239,292.550 93.271,292.172 94.091 C 291.795 94.911,291.153 95.688,290.746 95.817 C 289.596 96.182,288.800 97.163,288.800 98.214 C 288.800 99.205,287.991 99.846,285.800 100.592 C 284.793 100.934,284.568 101.258,284.400 102.600 C 284.223 104.019,284.008 104.289,282.500 104.990 C 281.123 105.629,280.800 105.982,280.800 106.845 C 280.800 108.087,279.820 109.425,278.400 110.121 C 277.850 110.391,277.130 111.149,276.799 111.806 C 275.748 113.896,274.370 115.595,273.263 116.168 C 272.618 116.501,271.971 117.338,271.645 118.262 C 270.914 120.330,270.084 121.200,268.838 121.202 C 267.955 121.204,267.710 121.483,267.200 123.071 C 266.870 124.098,266.330 125.066,266.000 125.223 C 265.670 125.379,264.905 125.739,264.300 126.021 C 263.553 126.370,263.200 126.840,263.200 127.486 C 263.200 128.009,262.781 128.855,262.270 129.366 C 261.758 129.878,261.114 130.842,260.838 131.508 C 260.491 132.346,259.728 133.009,258.368 133.655 C 256.738 134.428,256.400 134.772,256.400 135.653 C 256.400 136.359,255.949 137.113,255.060 137.894 C 254.322 138.541,253.604 139.530,253.463 140.091 C 253.322 140.652,252.621 141.628,251.904 142.260 C 251.187 142.893,250.383 143.894,250.117 144.486 C 249.852 145.077,249.120 145.828,248.491 146.153 C 247.842 146.489,247.030 147.447,246.615 148.368 C 246.092 149.527,245.507 150.126,244.569 150.466 C 243.566 150.828,243.099 151.348,242.597 152.663 C 242.044 154.112,241.690 154.461,240.370 154.856 C 239.506 155.115,238.798 155.523,238.796 155.763 C 238.781 157.439,236.780 160.400,235.663 160.400 C 234.550 160.400,234.452 160.541,233.778 163.100 C 232.925 166.344,232.617 166.796,231.251 166.813 C 229.755 166.831,228.800 167.702,228.800 169.047 C 228.800 169.993,228.469 170.406,227.000 171.293 C 225.626 172.123,225.200 172.620,225.200 173.394 C 225.200 174.121,224.755 174.718,223.629 175.504 C 222.764 176.107,221.766 177.233,221.410 178.007 C 221.036 178.818,220.154 179.749,219.324 180.207 C 218.353 180.742,217.741 181.451,217.442 182.386 C 217.184 183.196,216.452 184.141,215.681 184.659 C 214.956 185.147,213.953 186.320,213.452 187.266 C 212.803 188.494,212.185 189.089,211.292 189.345 C 210.241 189.646,209.938 190.031,209.394 191.752 C 208.577 194.335,208.097 194.973,206.600 195.464 C 205.634 195.781,205.277 196.242,204.771 197.829 C 204.182 199.672,204.027 199.828,202.371 200.233 C 200.689 200.644,200.589 200.750,200.374 202.326 C 200.104 204.309,200.168 204.234,198.190 204.883 C 196.807 205.336,196.583 205.585,196.369 206.904 C 196.080 208.683,195.928 208.868,194.298 209.427 C 192.998 209.872,192.724 210.224,192.140 212.191 C 191.946 212.847,191.364 213.594,190.847 213.851 C 190.330 214.109,189.592 215.013,189.206 215.860 C 188.819 216.707,187.582 218.443,186.456 219.719 C 185.330 220.994,184.219 222.391,183.988 222.823 C 183.756 223.256,182.921 224.018,182.132 224.517 C 181.156 225.135,180.489 225.991,180.043 227.197 C 179.509 228.643,179.162 229.016,178.159 229.221 C 176.318 229.598,176.000 229.918,176.000 231.400 C 176.000 232.923,175.677 233.223,173.401 233.819 C 171.919 234.206,171.783 234.360,171.578 235.884 C 171.287 238.041,170.603 238.800,168.951 238.800 C 167.674 238.800,167.600 238.876,167.600 240.200 C 167.600 241.748,166.469 243.200,165.263 243.200 C 164.538 243.200,164.319 243.546,162.421 247.689 C 161.945 248.728,161.011 249.965,160.346 250.438 C 159.682 250.912,159.013 251.635,158.861 252.046 C 158.475 253.091,153.204 258.800,152.625 258.800 C 152.363 258.800,151.899 259.439,151.592 260.219 C 150.942 261.878,150.335 262.451,148.645 262.999 C 147.622 263.332,147.369 263.666,147.158 264.967 C 146.869 266.750,145.954 267.600,144.324 267.600 C 143.361 267.600,143.202 267.758,143.214 268.700 C 143.239 270.638,141.157 274.380,139.900 274.657 C 139.295 274.791,138.800 275.148,138.800 275.450 C 138.800 275.752,138.627 276.000,138.416 276.000 C 138.205 276.000,137.817 276.717,137.555 277.593 C 137.147 278.955,136.878 279.224,135.707 279.444 C 134.832 279.608,134.217 280.008,134.005 280.550 C 133.822 281.018,133.451 281.995,133.179 282.721 C 132.815 283.695,132.374 284.105,131.504 284.279 C 130.585 284.463,130.158 284.899,129.584 286.237 C 129.107 287.349,128.272 288.338,127.223 289.032 C 126.330 289.623,125.600 290.319,125.600 290.578 C 125.600 291.255,122.095 295.878,121.371 296.156 C 121.037 296.284,120.500 297.020,120.178 297.791 C 119.847 298.583,118.907 299.647,118.019 300.235 C 117.009 300.903,116.356 301.688,116.193 302.430 C 116.038 303.137,115.524 303.784,114.870 304.098 C 114.182 304.428,113.616 305.172,113.285 306.182 C 112.646 308.132,112.109 308.800,111.180 308.800 C 110.782 308.800,110.168 309.089,109.815 309.442 C 107.991 311.266,103.963 311.189,206.821 311.298 L 303.547 311.400 304.748 312.550 C 305.409 313.183,306.354 313.903,306.849 314.150 C 309.970 315.710,309.532 329.200,306.360 329.200 C 305.473 329.200,304.754 330.129,304.436 331.688 C 304.250 332.593,303.883 333.051,303.187 333.245 C 301.393 333.745,86.161 333.652,84.169 333.150 C 82.919 332.836,82.121 332.326,81.506 331.450 C 81.024 330.763,80.453 330.128,80.237 330.041 C 76.675 328.594,77.004 312.967,80.660 309.954 C 81.030 309.649,81.936 308.458,82.675 307.306 C 83.413 306.154,84.551 304.936,85.203 304.599 C 86.295 304.034,86.567 303.524,86.884 301.443 C 87.008 300.634,87.497 300.302,89.394 299.739 C 90.371 299.449,90.633 299.112,90.832 297.888 C 91.130 296.054,91.087 296.098,93.242 295.474 C 94.890 294.998,95.014 294.862,95.222 293.317 C 95.511 291.177,96.196 290.400,97.796 290.400 C 99.011 290.400,99.109 290.296,99.311 288.784 C 99.574 286.826,100.103 286.129,101.570 285.807 C 102.729 285.552,103.228 284.833,104.002 282.305 C 104.253 281.483,105.050 280.313,105.773 279.705 C 106.496 279.097,107.586 277.835,108.197 276.900 C 108.807 275.965,109.457 275.200,109.641 275.200 C 109.824 275.200,110.704 274.212,111.596 273.005 C 112.502 271.780,113.644 270.704,114.185 270.568 C 114.864 270.398,115.233 269.948,115.421 269.063 C 115.762 267.458,116.689 266.402,117.762 266.394 C 119.055 266.384,119.431 265.949,119.831 264.000 C 120.169 262.350,120.338 262.156,121.850 261.678 C 123.324 261.211,123.522 260.997,123.703 259.678 C 123.957 257.819,125.883 254.845,127.017 254.560 C 127.489 254.441,128.387 253.536,129.011 252.548 C 129.763 251.358,130.508 250.678,131.212 250.538 C 132.090 250.362,132.398 249.944,132.960 248.159 C 133.535 246.337,133.887 245.870,135.192 245.204 C 136.045 244.769,136.866 244.005,137.019 243.507 C 137.171 243.008,138.129 241.760,139.148 240.733 C 142.044 237.814,143.382 236.129,143.601 235.125 C 143.739 234.491,144.462 233.886,145.900 233.200 C 147.642 232.369,147.997 232.022,147.999 231.150 C 147.999 230.510,148.546 229.505,149.400 228.572 C 150.170 227.731,150.800 226.893,150.800 226.708 C 150.800 226.524,151.396 225.777,152.124 225.049 C 152.853 224.321,153.624 223.112,153.838 222.362 C 154.135 221.320,154.542 220.897,155.568 220.562 C 156.568 220.236,157.123 219.677,157.754 218.362 C 158.383 217.051,158.926 216.504,159.873 216.225 C 161.096 215.865,161.375 215.512,162.337 213.111 C 162.615 212.416,163.176 211.934,163.886 211.778 C 164.499 211.643,165.207 211.471,165.460 211.394 C 165.713 211.318,166.044 210.526,166.194 209.634 C 166.452 208.110,167.152 207.172,169.582 205.098 C 170.034 204.712,170.628 203.558,170.902 202.534 C 171.353 200.849,171.580 200.598,173.300 199.883 C 174.930 199.206,175.200 198.933,175.200 197.967 C 175.200 196.846,177.234 194.800,178.348 194.800 C 178.607 194.800,178.929 194.257,179.061 193.593 C 179.209 192.853,179.891 191.920,180.822 191.183 C 181.735 190.460,182.448 189.492,182.609 188.757 C 182.816 187.817,183.252 187.375,184.492 186.848 C 185.804 186.292,186.230 185.828,186.764 184.381 C 187.270 183.010,187.764 182.438,188.911 181.897 C 189.730 181.510,190.400 180.905,190.400 180.551 C 190.400 179.326,192.094 176.904,193.336 176.353 C 194.023 176.049,194.814 175.305,195.093 174.700 C 195.372 174.095,195.831 173.105,196.113 172.500 C 196.471 171.730,196.982 171.359,197.811 171.264 C 199.224 171.102,199.586 170.628,199.594 168.929 C 199.601 167.481,200.482 166.400,201.655 166.400 C 203.212 166.400,204.000 165.648,204.000 164.164 C 204.000 162.852,204.136 162.699,206.000 161.925 C 207.675 161.229,208.001 160.923,208.006 160.047 C 208.014 158.711,208.328 158.257,209.755 157.518 C 210.409 157.180,211.278 156.163,211.755 155.178 C 212.225 154.208,213.122 153.153,213.776 152.799 C 214.448 152.435,215.082 151.677,215.254 151.034 C 215.652 149.548,217.520 146.879,218.346 146.617 C 218.706 146.503,219.408 145.520,219.907 144.434 C 220.620 142.878,221.105 142.361,222.183 142.006 C 223.249 141.654,223.658 141.225,224.025 140.077 C 224.630 138.184,224.919 137.895,226.712 137.392 C 228.008 137.028,228.220 136.791,228.435 135.468 C 228.743 133.575,229.177 133.143,231.080 132.834 C 232.507 132.602,232.614 132.486,232.822 130.928 C 233.081 129.000,233.780 128.000,234.871 128.000 C 235.423 128.000,235.922 127.372,236.617 125.800 C 237.152 124.590,237.750 123.600,237.946 123.600 C 238.143 123.600,238.529 123.053,238.806 122.385 C 239.083 121.716,239.631 120.997,240.024 120.787 C 240.784 120.380,245.202 115.091,245.952 113.690 C 246.198 113.230,246.714 112.748,247.100 112.617 C 247.485 112.487,248.293 111.566,248.896 110.571 C 249.592 109.423,250.493 108.553,251.363 108.190 C 252.400 107.756,252.800 107.300,253.011 106.309 C 253.341 104.756,254.268 103.600,255.182 103.600 C 256.088 103.600,256.800 102.806,256.800 101.796 C 256.800 100.406,257.727 99.560,259.514 99.321 C 261.086 99.110,261.200 99.010,261.201 97.847 C 261.202 97.161,261.532 96.060,261.934 95.400 C 262.336 94.740,262.786 93.716,262.934 93.125 C 263.145 92.279,263.475 92.024,264.485 91.925 C 265.658 91.811,265.833 91.604,266.535 89.502 C 267.233 87.414,267.440 87.166,268.788 86.803 C 270.023 86.471,270.349 86.152,270.731 84.902 C 271.035 83.908,271.665 83.095,272.595 82.496 C 276.031 80.287,281.436 80.411,182.162 80.405 L 92.124 80.400 91.362 79.558 C 90.387 78.480,90.185 63.823,91.129 62.685 C 91.971 61.671,88.620 61.700,198.258 61.751 C 300.775 61.799,303.135 61.817,303.958 62.562 " stroke="none" fill="#ca0404" fill-rule="evenodd"></path><path id="path2" d="M92.529 61.875 C 90.733 62.232,90.600 62.861,90.600 71.019 C 90.600 78.026,90.668 78.791,91.362 79.558 L 92.124 80.400 182.162 80.405 C 281.436 80.411,276.031 80.287,272.595 82.496 C 271.665 83.095,271.035 83.908,270.731 84.902 C 270.349 86.152,270.023 86.471,268.788 86.803 C 267.440 87.166,267.233 87.414,266.535 89.502 C 265.833 91.604,265.658 91.811,264.485 91.925 C 263.475 92.024,263.145 92.279,262.934 93.125 C 262.786 93.716,262.336 94.740,261.934 95.400 C 261.532 96.060,261.202 97.161,261.201 97.847 C 261.200 99.010,261.086 99.110,259.514 99.321 C 257.727 99.560,256.800 100.406,256.800 101.796 C 256.800 102.806,256.088 103.600,255.182 103.600 C 254.268 103.600,253.341 104.756,253.011 106.309 C 252.800 107.300,252.400 107.756,251.363 108.190 C 250.493 108.553,249.592 109.423,248.896 110.571 C 248.293 111.566,247.485 112.487,247.100 112.617 C 246.714 112.748,246.198 113.230,245.952 113.690 C 245.202 115.091,240.784 120.380,240.024 120.787 C 239.631 120.997,239.083 121.716,238.806 122.385 C 238.529 123.053,238.143 123.600,237.946 123.600 C 237.750 123.600,237.152 124.590,236.617 125.800 C 235.922 127.372,235.423 128.000,234.871 128.000 C 233.780 128.000,233.081 129.000,232.822 130.928 C 232.614 132.486,232.507 132.602,231.080 132.834 C 229.177 133.143,228.743 133.575,228.435 135.468 C 228.220 136.791,228.008 137.028,226.712 137.392 C 224.919 137.895,224.630 138.184,224.025 140.077 C 223.658 141.225,223.249 141.654,222.183 142.006 C 221.105 142.361,220.620 142.878,219.907 144.434 C 219.408 145.520,218.706 146.503,218.346 146.617 C 217.520 146.879,215.652 149.548,215.254 151.034 C 215.082 151.677,214.448 152.435,213.776 152.799 C 213.122 153.153,212.225 154.208,211.755 155.178 C 211.278 156.163,210.409 157.180,209.755 157.518 C 208.328 158.257,208.014 158.711,208.006 160.047 C 208.001 160.923,207.675 161.229,206.000 161.925 C 204.136 162.699,204.000 162.852,204.000 164.164 C 204.000 165.648,203.212 166.400,201.655 166.400 C 200.482 166.400,199.601 167.481,199.594 168.929 C 199.586 170.628,199.224 171.102,197.811 171.264 C 196.982 171.359,196.471 171.730,196.113 172.500 C 195.831 173.105,195.372 174.095,195.093 174.700 C 194.814 175.305,194.023 176.049,193.336 176.353 C 192.094 176.904,190.400 179.326,190.400 180.551 C 190.400 180.905,189.730 181.510,188.911 181.897 C 187.764 182.438,187.270 183.010,186.764 184.381 C 186.230 185.828,185.804 186.292,184.492 186.848 C 183.252 187.375,182.816 187.817,182.609 188.757 C 182.448 189.492,181.735 190.460,180.822 191.183 C 179.891 191.920,179.209 192.853,179.061 193.593 C 178.929 194.257,178.607 194.800,178.348 194.800 C 177.234 194.800,175.200 196.846,175.200 197.967 C 175.200 198.933,174.930 199.206,173.300 199.883 C 171.580 200.598,171.353 200.849,170.902 202.534 C 170.628 203.558,170.034 204.712,169.582 205.098 C 167.152 207.172,166.452 208.110,166.194 209.634 C 166.044 210.526,165.713 211.318,165.460 211.394 C 165.207 211.471,164.499 211.643,163.886 211.778 C 163.176 211.934,162.615 212.416,162.337 213.111 C 161.375 215.512,161.096 215.865,159.873 216.225 C 158.926 216.504,158.383 217.051,157.754 218.362 C 157.123 219.677,156.568 220.236,155.568 220.562 C 154.542 220.897,154.135 221.320,153.838 222.362 C 153.624 223.112,152.853 224.321,152.124 225.049 C 151.396 225.777,150.800 226.524,150.800 226.708 C 150.800 226.893,150.170 227.731,149.400 228.572 C 148.546 229.505,147.999 230.510,147.999 231.150 C 147.997 232.022,147.642 232.369,145.900 233.200 C 144.462 233.886,143.739 234.491,143.601 235.125 C 143.382 236.129,142.044 237.814,139.148 240.733 C 138.129 241.760,137.171 243.008,137.019 243.507 C 136.866 244.005,136.045 244.769,135.192 245.204 C 133.887 245.870,133.535 246.337,132.960 248.159 C 132.398 249.944,132.090 250.362,131.212 250.538 C 130.508 250.678,129.763 251.358,129.011 252.548 C 128.387 253.536,127.489 254.441,127.017 254.560 C 125.883 254.845,123.957 257.819,123.703 259.678 C 123.522 260.997,123.324 261.211,121.850 261.678 C 120.338 262.156,120.169 262.350,119.831 264.000 C 119.431 265.949,119.055 266.384,117.762 266.394 C 116.689 266.402,115.762 267.458,115.421 269.063 C 115.233 269.948,114.864 270.398,114.185 270.568 C 113.644 270.704,112.502 271.780,111.596 273.005 C 110.704 274.212,109.824 275.200,109.641 275.200 C 109.457 275.200,108.807 275.965,108.197 276.900 C 107.586 277.835,106.496 279.097,105.773 279.705 C 105.050 280.313,104.253 281.483,104.002 282.305 C 103.228 284.833,102.729 285.552,101.570 285.807 C 100.103 286.129,99.574 286.826,99.311 288.784 C 99.109 290.296,99.011 290.400,97.796 290.400 C 96.196 290.400,95.511 291.177,95.222 293.317 C 95.014 294.862,94.890 294.998,93.242 295.474 C 91.087 296.098,91.130 296.054,90.832 297.888 C 90.633 299.112,90.371 299.449,89.394 299.739 C 87.497 300.302,87.008 300.634,86.884 301.443 C 86.567 303.524,86.295 304.034,85.203 304.599 C 84.551 304.936,83.413 306.154,82.675 307.306 C 81.936 308.458,81.030 309.649,80.660 309.954 C 77.004 312.967,76.675 328.594,80.237 330.041 C 80.453 330.128,81.024 330.763,81.506 331.450 C 82.121 332.326,82.919 332.836,84.169 333.150 C 86.161 333.652,301.393 333.745,303.187 333.245 C 303.883 333.051,304.250 332.593,304.436 331.688 C 304.754 330.129,305.473 329.200,306.360 329.200 C 309.532 329.200,309.970 315.710,306.849 314.150 C 306.354 313.903,305.409 313.183,304.748 312.550 L 303.547 311.400 206.821 311.298 C 103.963 311.189,107.991 311.266,109.815 309.442 C 110.168 309.089,110.782 308.800,111.180 308.800 C 112.109 308.800,112.646 308.132,113.285 306.182 C 113.616 305.172,114.182 304.428,114.870 304.098 C 115.524 303.784,116.038 303.137,116.193 302.430 C 116.356 301.688,117.009 300.903,118.019 300.235 C 118.907 299.647,119.847 298.583,120.178 297.791 C 120.500 297.020,121.037 296.284,121.371 296.156 C 122.095 295.878,125.600 291.255,125.600 290.578 C 125.600 290.319,126.330 289.623,127.223 289.032 C 128.272 288.338,129.107 287.349,129.584 286.237 C 130.158 284.899,130.585 284.463,131.504 284.279 C 132.374 284.105,132.815 283.695,133.179 282.721 C 133.451 281.995,133.822 281.018,134.005 280.550 C 134.217 280.008,134.832 279.608,135.707 279.444 C 136.878 279.224,137.147 278.955,137.555 277.593 C 137.817 276.717,138.205 276.000,138.416 276.000 C 138.627 276.000,138.800 275.752,138.800 275.450 C 138.800 275.148,139.295 274.791,139.900 274.657 C 141.157 274.380,143.239 270.638,143.214 268.700 C 143.202 267.758,143.361 267.600,144.324 267.600 C 145.954 267.600,146.869 266.750,147.158 264.967 C 147.369 263.666,147.622 263.332,148.645 262.999 C 150.335 262.451,150.942 261.878,151.592 260.219 C 151.899 259.439,152.363 258.800,152.625 258.800 C 153.204 258.800,158.475 253.091,158.861 252.046 C 159.013 251.635,159.682 250.912,160.346 250.438 C 161.011 249.965,161.945 248.728,162.421 247.689 C 164.319 243.546,164.538 243.200,165.263 243.200 C 166.469 243.200,167.600 241.748,167.600 240.200 C 167.600 238.876,167.674 238.800,168.951 238.800 C 170.603 238.800,171.287 238.041,171.578 235.884 C 171.783 234.360,171.919 234.206,173.401 233.819 C 175.677 233.223,176.000 232.923,176.000 231.400 C 176.000 229.918,176.318 229.598,178.159 229.221 C 179.162 229.016,179.509 228.643,180.043 227.197 C 180.489 225.991,181.156 225.135,182.132 224.517 C 182.921 224.018,183.756 223.256,183.988 222.823 C 184.219 222.391,185.330 220.994,186.456 219.719 C 187.582 218.443,188.819 216.707,189.206 215.860 C 189.592 215.013,190.330 214.109,190.847 213.851 C 191.364 213.594,191.946 212.847,192.140 212.191 C 192.724 210.224,192.998 209.872,194.298 209.427 C 195.928 208.868,196.080 208.683,196.369 206.904 C 196.583 205.585,196.807 205.336,198.190 204.883 C 200.168 204.234,200.104 204.309,200.374 202.326 C 200.589 200.750,200.689 200.644,202.371 200.233 C 204.027 199.828,204.182 199.672,204.771 197.829 C 205.277 196.242,205.634 195.781,206.600 195.464 C 208.097 194.973,208.577 194.335,209.394 191.752 C 209.938 190.031,210.241 189.646,211.292 189.345 C 212.185 189.089,212.803 188.494,213.452 187.266 C 213.953 186.320,214.956 185.147,215.681 184.659 C 216.452 184.141,217.184 183.196,217.442 182.386 C 217.741 181.451,218.353 180.742,219.324 180.207 C 220.154 179.749,221.036 178.818,221.410 178.007 C 221.766 177.233,222.764 176.107,223.629 175.504 C 224.755 174.718,225.200 174.121,225.200 173.394 C 225.200 172.620,225.626 172.123,227.000 171.293 C 228.469 170.406,228.800 169.993,228.800 169.047 C 228.800 167.702,229.755 166.831,231.251 166.813 C 232.617 166.796,232.925 166.344,233.778 163.100 C 234.452 160.541,234.550 160.400,235.663 160.400 C 236.780 160.400,238.781 157.439,238.796 155.763 C 238.798 155.523,239.506 155.115,240.370 154.856 C 241.690 154.461,242.044 154.112,242.597 152.663 C 243.099 151.348,243.566 150.828,244.569 150.466 C 245.507 150.126,246.092 149.527,246.615 148.368 C 247.030 147.447,247.842 146.489,248.491 146.153 C 249.120 145.828,249.852 145.077,250.117 144.486 C 250.383 143.894,251.187 142.893,251.904 142.260 C 252.621 141.628,253.322 140.652,253.463 140.091 C 253.604 139.530,254.322 138.541,255.060 137.894 C 255.949 137.113,256.400 136.359,256.400 135.653 C 256.400 134.772,256.738 134.428,258.368 133.655 C 259.728 133.009,260.491 132.346,260.838 131.508 C 261.114 130.842,261.758 129.878,262.270 129.366 C 262.781 128.855,263.200 128.009,263.200 127.486 C 263.200 126.840,263.553 126.370,264.300 126.021 C 264.905 125.739,265.670 125.379,266.000 125.223 C 266.330 125.066,266.870 124.098,267.200 123.071 C 267.710 121.483,267.955 121.204,268.838 121.202 C 270.084 121.200,270.914 120.330,271.645 118.262 C 271.971 117.338,272.618 116.501,273.263 116.168 C 274.370 115.595,275.748 113.896,276.799 111.806 C 277.130 111.149,277.850 110.391,278.400 110.121 C 279.820 109.425,280.800 108.087,280.800 106.845 C 280.800 105.982,281.123 105.629,282.500 104.990 C 284.008 104.289,284.223 104.019,284.400 102.600 C 284.568 101.258,284.793 100.934,285.800 100.592 C 287.991 99.846,288.800 99.205,288.800 98.214 C 288.800 97.163,289.596 96.182,290.746 95.817 C 291.153 95.688,291.795 94.911,292.172 94.091 C 292.550 93.271,293.430 92.239,294.129 91.797 C 294.828 91.356,295.742 90.239,296.160 89.316 C 296.732 88.052,297.211 87.573,298.097 87.379 C 299.392 87.094,300.244 85.566,300.740 82.637 C 300.992 81.153,301.138 80.988,302.312 80.874 C 304.526 80.660,304.800 79.560,304.800 70.882 C 304.800 63.706,304.757 63.285,303.958 62.562 C 303.167 61.846,96.064 61.174,92.529 61.875 M302.051 62.973 C 303.804 63.339,304.000 64.209,304.000 71.606 C 304.000 77.871,303.816 78.689,302.329 79.016 C 301.083 79.289,300.710 79.883,299.990 82.730 C 299.633 84.143,299.301 84.566,298.182 85.033 C 297.193 85.446,296.528 86.162,295.802 87.596 C 295.248 88.690,294.300 89.895,293.697 90.273 C 292.081 91.284,291.368 92.095,290.930 93.418 C 290.706 94.095,289.826 95.081,288.869 95.726 C 287.534 96.628,287.200 97.092,287.200 98.049 C 287.200 99.080,286.954 99.354,285.416 100.034 C 283.915 100.698,283.590 101.046,283.368 102.228 C 283.160 103.337,282.780 103.798,281.559 104.421 C 280.505 104.959,279.936 105.558,279.771 106.305 C 279.639 106.907,279.487 107.575,279.436 107.788 C 279.384 108.002,278.647 108.542,277.799 108.988 C 276.792 109.518,276.124 110.216,275.876 111.000 C 275.359 112.631,274.527 113.509,273.227 113.794 C 272.314 113.995,271.989 114.451,271.235 116.587 C 270.353 119.085,269.871 119.600,268.416 119.600 C 267.984 119.600,267.518 120.078,267.249 120.800 C 267.002 121.460,266.598 122.540,266.351 123.200 C 266.048 124.013,265.628 124.402,265.051 124.406 C 263.679 124.416,263.053 125.042,262.407 127.050 C 261.897 128.637,261.577 129.012,260.400 129.403 C 259.237 129.789,258.966 130.100,258.800 131.234 C 258.627 132.418,258.321 132.733,256.501 133.600 C 254.608 134.502,254.403 134.727,254.401 135.896 C 254.400 136.944,254.128 137.366,252.982 138.096 C 252.100 138.658,251.475 139.425,251.327 140.125 C 251.191 140.772,250.414 141.794,249.503 142.525 C 248.630 143.226,247.581 144.456,247.171 145.257 C 246.762 146.058,245.656 147.372,244.714 148.175 C 243.771 148.979,242.640 150.377,242.200 151.281 C 241.760 152.186,241.085 153.078,240.700 153.263 C 238.396 154.372,238.667 154.069,237.455 156.900 C 236.914 158.165,236.622 158.400,235.594 158.400 C 234.307 158.400,234.290 158.423,233.600 161.118 C 233.300 162.289,232.875 162.944,232.263 163.176 C 231.286 163.548,230.464 164.408,229.812 165.743 C 229.582 166.214,228.720 166.930,227.897 167.333 C 226.983 167.780,226.400 168.350,226.400 168.795 C 226.400 169.196,225.770 170.278,225.000 171.200 C 224.230 172.122,223.600 173.120,223.600 173.419 C 223.600 173.718,222.894 174.530,222.031 175.223 C 221.168 175.916,220.247 177.003,219.984 177.638 C 219.721 178.273,218.897 179.169,218.153 179.629 C 217.409 180.089,216.800 180.635,216.800 180.842 C 216.800 181.049,216.104 181.979,215.254 182.909 C 214.403 183.839,213.416 185.170,213.060 185.867 C 212.638 186.695,212.012 187.222,211.251 187.389 C 210.326 187.592,209.920 188.049,209.266 189.623 C 208.692 191.004,208.014 191.855,207.019 192.442 C 206.236 192.904,205.490 193.700,205.361 194.212 C 205.233 194.723,204.784 195.452,204.364 195.833 C 203.944 196.213,203.600 196.910,203.600 197.382 C 203.600 198.465,202.879 199.200,201.816 199.200 C 200.798 199.200,199.865 200.548,199.600 202.400 C 199.428 203.604,199.232 203.819,198.200 203.935 C 196.583 204.118,196.084 204.604,195.576 206.489 C 195.220 207.811,194.881 208.190,193.601 208.692 C 192.147 209.263,191.818 209.703,191.057 212.082 C 190.937 212.457,190.132 213.125,189.267 213.566 C 188.280 214.069,187.601 214.740,187.444 215.367 C 187.202 216.331,185.099 219.031,181.653 222.800 C 180.748 223.790,179.521 225.364,178.926 226.298 C 178.330 227.232,177.535 228.094,177.158 228.213 C 176.120 228.543,175.493 229.484,175.229 231.110 C 175.023 232.375,174.792 232.634,173.552 232.989 C 171.513 233.572,170.862 234.248,170.722 235.930 C 170.611 237.271,170.478 237.418,169.214 237.600 C 167.785 237.806,167.267 238.461,166.535 240.984 C 166.278 241.870,165.881 242.232,164.961 242.421 C 163.279 242.765,162.800 243.116,162.800 244.005 C 162.800 245.354,161.904 246.777,160.555 247.574 C 159.709 248.073,158.813 249.189,158.057 250.688 C 157.371 252.046,156.428 253.264,155.803 253.599 C 155.211 253.915,154.383 254.849,153.962 255.674 C 153.542 256.498,152.797 257.388,152.307 257.650 C 151.024 258.336,150.579 258.861,150.136 260.207 C 149.882 260.980,149.191 261.691,148.174 262.225 C 146.893 262.899,146.561 263.322,146.365 264.530 C 146.074 266.318,146.144 266.243,144.184 266.883 C 142.750 267.351,142.581 267.552,142.400 269.000 C 142.223 270.413,142.003 270.694,140.514 271.400 C 139.250 272.000,138.712 272.550,138.364 273.600 C 137.740 275.478,136.873 276.400,135.729 276.400 C 135.068 276.400,134.653 276.731,134.351 277.500 C 132.929 281.126,132.363 282.013,131.157 282.505 C 130.220 282.887,129.734 283.472,129.245 284.809 C 128.761 286.129,128.225 286.782,127.205 287.293 C 126.307 287.743,125.496 288.627,124.895 289.809 C 124.385 290.811,123.551 291.822,123.040 292.055 C 122.529 292.287,121.816 293.096,121.456 293.852 C 121.095 294.608,120.170 295.599,119.400 296.053 C 118.333 296.683,118.000 297.144,118.000 297.994 C 118.000 299.187,116.910 300.156,115.042 300.625 C 114.205 300.835,114.000 301.126,114.000 302.105 C 114.000 302.991,113.590 303.717,112.500 304.762 C 111.675 305.553,110.341 307.123,109.535 308.252 L 108.070 310.304 108.829 311.552 L 109.588 312.800 206.532 312.800 C 298.358 312.800,303.509 312.837,304.093 313.500 C 305.066 314.604,305.600 318.039,305.600 323.189 L 305.600 327.938 304.338 329.201 C 303.643 329.895,302.616 330.764,302.055 331.132 C 300.342 332.254,86.114 331.992,85.216 330.866 C 84.877 330.441,83.664 329.877,82.520 329.612 C 79.514 328.915,79.535 328.975,79.540 320.995 L 79.545 313.950 80.872 312.109 C 81.603 311.096,83.055 309.403,84.100 308.346 C 85.145 307.289,86.000 306.245,86.000 306.026 C 86.000 305.807,86.536 305.017,87.192 304.270 C 87.848 303.523,88.523 302.539,88.692 302.083 C 88.861 301.627,89.610 300.837,90.355 300.327 C 91.141 299.789,91.897 298.822,92.155 298.023 C 92.491 296.984,92.902 296.568,93.829 296.330 C 95.048 296.017,95.554 295.323,96.255 293.002 C 96.526 292.109,96.916 291.753,97.794 291.601 C 98.943 291.402,99.117 291.176,100.569 288.000 C 100.838 287.412,101.434 286.943,102.013 286.862 C 103.408 286.666,103.879 286.171,104.175 284.591 C 104.356 283.628,104.963 282.769,106.185 281.748 C 107.148 280.943,108.403 279.427,108.973 278.379 C 109.568 277.286,110.609 276.120,111.413 275.645 C 112.367 275.082,112.895 274.427,113.060 273.600 C 113.227 272.765,113.820 272.038,114.952 271.280 C 116.207 270.439,116.629 269.878,116.722 268.927 C 116.818 267.947,117.120 267.570,118.122 267.173 C 120.035 266.417,120.800 265.604,120.800 264.328 C 120.800 263.437,121.046 263.093,121.900 262.790 C 123.796 262.118,124.060 261.842,124.738 259.815 C 125.291 258.163,125.604 257.787,126.646 257.522 C 127.646 257.268,128.051 256.820,128.703 255.253 C 129.402 253.570,129.718 253.251,130.987 252.950 C 132.361 252.624,132.519 252.425,133.330 250.003 C 134.066 247.807,134.385 247.345,135.400 247.008 C 136.845 246.529,137.077 246.244,137.622 244.276 C 137.969 243.023,138.345 242.624,139.744 242.024 C 141.167 241.414,141.526 241.023,141.943 239.631 C 142.322 238.366,142.768 237.811,143.804 237.318 C 144.747 236.868,145.245 236.307,145.424 235.492 C 145.588 234.744,146.127 234.076,146.904 233.658 C 148.747 232.665,149.600 231.706,149.600 230.626 C 149.600 229.907,150.016 229.418,151.182 228.762 C 152.305 228.131,152.842 227.518,153.033 226.652 C 153.180 225.980,154.133 224.595,155.150 223.573 C 156.168 222.552,157.606 220.880,158.347 219.858 C 159.087 218.836,159.915 218.000,160.185 218.000 C 160.924 218.000,161.840 216.783,162.390 215.072 C 162.660 214.232,163.087 213.482,163.340 213.405 C 163.593 213.329,164.293 213.159,164.896 213.027 C 165.780 212.833,166.075 212.460,166.422 211.093 C 166.994 208.844,167.603 208.096,168.996 207.934 C 169.943 207.824,170.217 207.546,170.502 206.400 C 170.694 205.630,171.379 204.496,172.025 203.880 C 172.671 203.264,173.200 202.502,173.200 202.187 C 173.200 201.873,174.100 200.944,175.200 200.122 C 176.566 199.103,177.200 198.344,177.200 197.729 C 177.200 197.199,177.570 196.638,178.100 196.365 C 179.141 195.830,180.800 194.058,180.800 193.483 C 180.800 193.266,181.526 192.259,182.414 191.245 C 183.302 190.230,184.787 188.535,185.714 187.477 C 186.641 186.420,188.154 184.800,189.075 183.877 C 189.997 182.955,190.938 181.705,191.166 181.100 C 191.394 180.495,192.170 179.650,192.890 179.221 C 193.611 178.792,194.743 177.493,195.407 176.334 C 196.299 174.776,196.942 174.132,197.870 173.866 C 198.642 173.644,199.206 173.178,199.335 172.653 C 200.289 168.791,201.077 167.400,202.425 167.200 C 203.771 167.000,204.121 166.579,205.139 163.937 C 205.410 163.234,205.954 162.786,206.747 162.612 C 208.172 162.299,208.620 161.809,208.966 160.190 C 209.151 159.324,209.722 158.679,210.973 157.923 C 212.251 157.151,212.797 156.525,213.001 155.596 C 213.188 154.743,213.721 154.066,214.622 153.534 C 215.360 153.098,216.078 152.383,216.218 151.945 C 216.357 151.506,217.265 150.253,218.235 149.160 C 219.206 148.067,220.000 147.018,220.000 146.827 C 220.000 146.637,221.102 145.338,222.448 143.941 C 223.795 142.543,225.147 140.815,225.453 140.100 C 225.760 139.385,226.287 138.800,226.624 138.800 C 227.649 138.800,229.200 136.933,229.200 135.698 C 229.200 134.273,229.852 133.600,231.231 133.600 C 232.554 133.600,233.170 132.897,233.471 131.042 C 233.744 129.357,234.185 128.918,235.785 128.735 C 236.800 128.619,237.041 128.351,237.472 126.856 C 238.102 124.671,238.561 124.116,240.002 123.800 C 240.850 123.613,241.214 123.247,241.402 122.389 C 241.543 121.751,242.519 120.363,243.572 119.305 C 244.625 118.246,245.808 116.755,246.201 115.990 C 246.863 114.704,247.733 113.714,251.994 109.400 C 252.863 108.520,253.781 107.207,254.033 106.482 C 254.346 105.581,254.952 104.947,255.946 104.481 C 257.071 103.953,257.430 103.527,257.533 102.599 C 257.709 101.022,258.672 100.000,259.982 100.000 C 261.329 100.000,262.000 99.326,262.000 97.974 C 262.000 96.393,263.420 94.800,264.829 94.800 C 265.766 94.800,266.000 94.626,266.000 93.926 C 266.000 92.378,267.635 89.546,268.755 89.155 C 269.429 88.920,270.217 88.017,270.976 86.613 C 271.660 85.347,272.749 84.050,273.576 83.517 C 275.223 82.455,275.708 80.728,274.522 80.151 C 274.118 79.955,233.808 79.710,183.000 79.596 C 133.060 79.484,92.173 79.349,92.139 79.296 C 90.972 77.452,90.748 64.362,91.863 63.130 C 92.563 62.357,298.365 62.203,302.051 62.973 " stroke="none" fill="#d45959" fill-rule="evenodd"></path><path id="path3" d="M91.862 63.131 C 91.074 64.002,90.882 75.912,91.625 77.866 C 92.221 79.434,92.632 79.597,95.800 79.520 C 98.371 79.458,98.420 79.441,96.400 79.322 C 91.679 79.044,91.600 78.904,91.600 70.807 C 91.600 64.306,91.880 62.952,93.278 62.685 C 94.117 62.525,94.124 62.504,93.362 62.454 C 92.901 62.425,92.226 62.729,91.862 63.131 M300.647 63.127 C 303.407 64.445,303.600 64.993,303.600 71.524 L 303.600 77.269 302.429 77.711 C 301.785 77.954,301.065 78.577,300.829 79.095 C 300.297 80.264,300.287 80.836,300.815 79.931 C 301.029 79.563,301.723 79.149,302.357 79.010 C 303.812 78.690,304.000 77.842,304.000 71.606 C 304.000 64.409,303.776 63.319,302.251 63.080 C 301.563 62.972,300.550 62.761,300.000 62.612 C 299.450 62.463,299.741 62.695,300.647 63.127 M272.600 79.797 C 272.820 79.870,273.506 80.042,274.125 80.179 C 275.773 80.544,275.487 82.284,273.576 83.517 C 272.739 84.057,271.668 85.339,270.976 86.630 C 270.242 88.001,269.465 88.911,268.907 89.054 C 268.078 89.267,266.380 91.444,266.416 92.247 C 266.425 92.441,266.704 92.099,267.036 91.486 C 267.389 90.835,268.090 90.282,268.722 90.156 C 269.569 89.986,270.043 89.428,270.915 87.573 C 271.651 86.006,272.419 85.004,273.189 84.606 C 276.386 82.953,276.343 79.522,273.126 79.632 C 272.617 79.649,272.380 79.723,272.600 79.797 M299.440 83.381 C 299.263 84.089,298.912 84.402,298.292 84.406 C 297.062 84.415,296.743 84.716,295.634 86.920 C 295.103 87.976,294.113 89.232,293.434 89.711 C 291.700 90.936,290.830 92.020,290.541 93.319 C 290.372 94.083,289.816 94.682,288.795 95.202 C 287.233 96.000,286.800 96.646,286.800 98.184 C 286.800 98.849,286.440 99.245,285.500 99.617 C 283.587 100.374,282.800 101.189,282.800 102.413 C 282.800 103.241,282.518 103.620,281.629 103.988 C 280.148 104.602,279.311 105.533,279.136 106.763 C 279.046 107.399,278.492 107.989,277.505 108.500 C 276.366 109.089,275.895 109.657,275.527 110.886 C 275.139 112.181,274.724 112.648,273.422 113.256 C 272.030 113.906,271.971 113.981,273.000 113.781 C 274.493 113.491,275.276 112.745,275.830 111.087 C 276.118 110.226,276.770 109.531,277.801 108.988 C 278.648 108.542,279.384 108.002,279.436 107.788 C 279.487 107.575,279.639 106.907,279.771 106.305 C 279.936 105.558,280.505 104.959,281.559 104.421 C 282.780 103.798,283.160 103.337,283.368 102.228 C 283.590 101.046,283.915 100.698,285.416 100.034 C 286.954 99.354,287.200 99.080,287.200 98.049 C 287.200 97.092,287.534 96.628,288.869 95.726 C 289.826 95.081,290.706 94.095,290.930 93.418 C 291.368 92.095,292.081 91.284,293.697 90.273 C 294.300 89.895,295.248 88.690,295.802 87.596 C 296.524 86.171,297.195 85.446,298.167 85.040 C 299.371 84.536,300.392 83.058,299.885 82.551 C 299.781 82.448,299.581 82.821,299.440 83.381 M262.962 95.693 C 262.543 96.184,262.470 96.381,262.800 96.129 C 263.130 95.878,264.030 95.492,264.800 95.272 L 266.200 94.872 264.962 94.836 C 264.144 94.812,263.466 95.103,262.962 95.693 M262.060 97.820 C 262.027 98.491,261.776 99.301,261.503 99.620 C 261.229 99.940,261.333 99.910,261.735 99.554 C 262.225 99.119,262.407 98.531,262.292 97.754 L 262.120 96.600 262.060 97.820 M258.295 100.700 C 257.950 101.085,257.607 101.940,257.533 102.599 C 257.430 103.527,257.071 103.953,255.946 104.481 C 254.952 104.947,254.346 105.581,254.033 106.482 C 253.781 107.207,252.863 108.520,251.994 109.400 C 247.733 113.714,246.863 114.704,246.201 115.990 C 245.808 116.755,244.625 118.246,243.572 119.305 C 242.519 120.363,241.543 121.751,241.402 122.389 C 241.212 123.255,240.851 123.613,239.974 123.806 C 238.748 124.075,237.589 125.344,237.616 126.389 C 237.624 126.725,237.874 126.441,238.172 125.759 C 238.559 124.869,239.067 124.447,239.967 124.267 C 240.982 124.064,241.371 123.668,242.003 122.194 C 242.459 121.128,243.257 120.100,243.925 119.717 C 244.553 119.357,245.591 118.090,246.233 116.903 C 246.875 115.715,247.987 114.296,248.704 113.749 C 249.421 113.201,250.351 112.080,250.772 111.256 C 251.192 110.432,252.007 109.543,252.584 109.280 C 253.184 109.007,253.924 108.128,254.316 107.222 C 254.695 106.346,255.624 105.225,256.400 104.708 C 257.378 104.056,257.841 103.416,257.935 102.587 C 258.102 101.130,258.591 100.500,259.729 100.278 C 260.575 100.114,260.576 100.107,259.762 100.054 C 259.301 100.025,258.641 100.315,258.295 100.700 M270.415 117.564 C 270.081 118.370,269.545 118.836,268.754 119.010 C 267.551 119.274,266.384 120.907,266.418 122.280 C 266.430 122.808,267.555 120.341,267.594 119.700 C 267.597 119.645,268.005 119.597,268.500 119.594 C 269.743 119.585,270.277 119.174,270.786 117.836 C 271.371 116.298,271.040 116.055,270.415 117.564 M263.062 124.731 C 262.698 125.134,262.411 125.719,262.425 126.031 C 262.439 126.344,262.612 126.200,262.808 125.712 C 263.009 125.212,263.653 124.716,264.283 124.577 C 266.130 124.169,266.260 124.065,264.962 124.032 C 264.238 124.013,263.449 124.304,263.062 124.731 M261.868 127.671 C 261.679 128.426,261.260 128.811,260.428 128.994 C 259.034 129.300,258.689 129.705,258.103 131.724 C 257.732 133.001,257.749 133.175,258.207 132.794 C 258.508 132.545,258.809 131.784,258.877 131.103 C 258.976 130.103,259.256 129.781,260.336 129.419 C 261.715 128.957,262.577 127.932,262.296 127.088 C 262.208 126.823,262.015 127.085,261.868 127.671 M235.730 128.687 C 235.031 128.775,234.230 129.151,233.949 129.523 C 233.517 130.096,233.525 130.123,233.999 129.700 C 234.308 129.425,235.053 129.200,235.656 129.200 C 236.259 129.200,236.864 129.020,237.000 128.800 C 237.136 128.580,237.192 128.429,237.124 128.464 C 237.056 128.499,236.428 128.600,235.730 128.687 M232.998 132.493 C 232.738 133.085,232.183 133.447,231.400 133.535 C 229.776 133.719,229.200 134.277,229.200 135.667 C 229.200 136.932,227.664 138.800,226.624 138.800 C 226.287 138.800,225.760 139.385,225.453 140.100 C 225.147 140.815,223.795 142.543,222.448 143.941 C 221.102 145.338,220.000 146.637,220.000 146.827 C 220.000 147.018,219.206 148.067,218.235 149.160 C 217.265 150.253,216.357 151.506,216.218 151.945 C 216.078 152.383,215.360 153.098,214.622 153.534 C 213.721 154.066,213.188 154.743,213.001 155.596 C 212.797 156.525,212.251 157.151,210.973 157.923 C 209.722 158.679,209.151 159.324,208.966 160.190 C 208.622 161.802,208.172 162.299,206.777 162.605 C 206.135 162.746,205.511 163.020,205.391 163.215 C 205.070 163.734,207.697 162.791,208.400 162.135 C 208.730 161.826,209.192 161.006,209.427 160.312 C 209.702 159.500,210.368 158.784,211.296 158.302 C 212.197 157.834,212.898 157.095,213.165 156.329 C 213.400 155.655,214.359 154.344,215.296 153.416 C 216.233 152.487,217.720 150.783,218.600 149.629 C 220.733 146.830,224.503 142.381,227.163 139.520 C 228.707 137.862,229.396 136.765,229.568 135.697 C 229.781 134.374,229.955 134.186,231.063 134.078 C 232.364 133.951,233.788 132.765,233.539 132.016 C 233.460 131.780,233.217 131.995,232.998 132.493 M254.700 134.032 C 254.288 134.272,254.000 134.917,254.000 135.600 C 254.000 136.458,253.631 137.041,252.579 137.843 C 251.797 138.440,250.914 139.511,250.616 140.225 C 250.317 140.938,249.499 141.944,248.797 142.461 C 248.095 142.977,247.180 144.065,246.764 144.877 C 246.348 145.689,245.394 146.822,244.644 147.394 C 243.894 147.966,242.767 149.416,242.140 150.617 C 241.273 152.277,240.688 152.905,239.697 153.233 C 238.282 153.701,237.445 154.845,237.728 155.921 C 237.866 156.443,237.918 156.406,237.954 155.762 C 238.007 154.798,239.179 153.600,240.070 153.600 C 240.828 153.600,241.722 152.571,242.355 150.968 C 242.622 150.290,243.643 149.064,244.624 148.245 C 245.605 147.425,246.746 146.090,247.161 145.277 C 247.576 144.465,248.630 143.226,249.503 142.525 C 250.414 141.794,251.191 140.772,251.327 140.125 C 251.475 139.425,252.100 138.658,252.982 138.096 C 254.152 137.351,254.400 136.954,254.400 135.830 C 254.400 134.707,254.594 134.396,255.500 134.065 C 256.105 133.844,256.330 133.654,256.000 133.644 C 255.670 133.633,255.085 133.808,254.700 134.032 M235.600 157.893 C 234.223 158.146,233.593 158.743,233.640 159.749 C 233.675 160.500,233.712 160.482,233.956 159.600 C 234.158 158.868,234.550 158.565,235.416 158.469 C 236.067 158.397,236.771 158.172,236.980 157.969 C 237.382 157.579,237.324 157.576,235.600 157.893 M233.014 161.956 C 232.846 162.485,232.273 162.863,231.388 163.029 C 230.218 163.248,229.983 163.485,229.761 164.665 C 229.490 166.112,228.543 166.963,226.700 167.416 C 225.846 167.626,225.600 167.923,225.600 168.744 C 225.600 169.800,222.247 174.800,221.538 174.800 C 221.343 174.800,220.675 175.565,220.056 176.500 C 219.436 177.435,217.735 179.448,216.275 180.974 C 214.816 182.499,213.331 184.359,212.976 185.106 C 212.575 185.951,211.880 186.623,211.137 186.882 C 210.262 187.187,209.679 187.856,208.956 189.384 C 208.251 190.873,207.601 191.631,206.684 192.035 C 205.976 192.346,205.340 192.959,205.264 193.400 C 205.143 194.111,205.188 194.130,205.664 193.572 C 205.959 193.227,206.711 192.627,207.336 192.239 C 208.001 191.826,208.806 190.730,209.280 189.589 C 209.920 188.049,210.330 187.591,211.251 187.389 C 212.012 187.222,212.638 186.695,213.060 185.867 C 213.416 185.170,214.403 183.839,215.254 182.909 C 216.104 181.979,216.800 181.049,216.800 180.842 C 216.800 180.635,217.409 180.089,218.153 179.629 C 218.897 179.169,219.721 178.273,219.984 177.638 C 220.247 177.003,221.168 175.916,222.031 175.223 C 222.894 174.530,223.600 173.718,223.600 173.419 C 223.600 173.120,224.230 172.122,225.000 171.200 C 225.770 170.278,226.400 169.196,226.400 168.795 C 226.400 168.350,226.983 167.780,227.897 167.333 C 228.720 166.930,229.591 166.196,229.832 165.703 C 230.460 164.419,231.637 163.200,232.248 163.200 C 232.801 163.200,233.803 161.670,233.469 161.336 C 233.361 161.228,233.156 161.507,233.014 161.956 M204.854 164.611 C 204.762 165.991,203.669 167.142,202.326 167.275 C 201.630 167.344,201.016 167.630,200.961 167.910 C 200.905 168.191,200.952 168.236,201.063 168.010 C 201.175 167.785,201.760 167.600,202.364 167.600 C 203.803 167.600,205.327 166.000,205.087 164.739 C 204.937 163.949,204.900 163.928,204.854 164.611 M200.082 170.275 C 199.155 173.001,199.124 173.435,199.985 171.624 C 200.449 170.647,200.778 169.600,200.715 169.298 C 200.652 168.996,200.367 169.436,200.082 170.275 M197.326 174.003 C 196.846 174.196,196.251 174.770,196.004 175.277 C 195.615 176.079,195.627 176.113,196.097 175.534 C 196.394 175.168,197.155 174.808,197.788 174.734 C 198.421 174.660,199.012 174.375,199.102 174.100 C 199.290 173.529,198.597 173.491,197.326 174.003 M195.013 177.159 C 194.870 177.610,194.012 178.479,193.107 179.089 C 192.202 179.700,191.389 180.470,191.301 180.800 C 191.198 181.186,191.402 181.106,191.870 180.577 C 192.272 180.124,193.099 179.542,193.708 179.282 C 194.700 178.859,195.894 176.960,195.448 176.514 C 195.352 176.418,195.156 176.709,195.013 177.159 M189.298 183.550 C 183.247 190.130,180.800 192.995,180.800 193.501 C 180.800 194.061,179.126 195.837,178.100 196.365 C 177.570 196.638,177.200 197.199,177.200 197.729 C 177.200 198.344,176.566 199.103,175.200 200.122 C 174.100 200.944,173.200 201.881,173.200 202.205 C 173.200 202.529,172.660 203.275,172.000 203.863 C 171.340 204.451,170.800 205.074,170.800 205.248 C 170.800 205.422,171.242 205.122,171.782 204.582 C 172.322 204.042,173.038 203.600,173.374 203.600 C 173.710 203.600,174.102 203.105,174.246 202.500 C 174.568 201.147,175.451 200.097,176.899 199.349 C 177.628 198.972,178.000 198.461,178.000 197.836 C 178.000 197.278,178.397 196.632,178.969 196.257 C 179.503 195.907,180.984 194.222,182.262 192.511 C 184.722 189.218,186.718 186.906,189.500 184.128 C 190.435 183.194,191.200 182.243,191.200 182.015 C 191.200 181.467,191.252 181.425,189.298 183.550 M204.285 195.326 C 203.942 195.849,203.126 196.499,202.472 196.770 C 200.957 197.398,200.441 199.200,201.775 199.200 C 202.855 199.200,203.600 198.484,203.600 197.446 C 203.600 197.009,203.991 196.236,204.468 195.727 C 204.946 195.219,205.240 194.707,205.122 194.589 C 205.005 194.471,204.628 194.803,204.285 195.326 M199.862 200.331 C 199.498 200.734,199.200 201.634,199.200 202.331 C 199.200 203.459,199.073 203.600,198.062 203.600 C 196.694 203.600,195.700 204.605,195.170 206.523 C 194.867 207.620,194.519 207.998,193.631 208.193 C 192.227 208.502,191.444 209.354,190.843 211.230 C 190.519 212.241,189.980 212.852,189.002 213.318 C 188.164 213.718,187.396 214.494,187.052 215.289 C 186.739 216.010,185.160 218.074,183.542 219.876 C 181.924 221.678,180.029 223.838,179.330 224.676 C 178.632 225.514,177.343 227.048,176.466 228.083 C 175.589 229.119,174.749 230.522,174.600 231.200 C 174.393 232.144,174.060 232.488,173.185 232.663 C 172.556 232.789,171.717 233.273,171.320 233.739 C 170.621 234.562,170.622 234.569,171.356 233.993 C 171.773 233.667,172.760 233.215,173.552 232.989 C 174.792 232.634,175.023 232.375,175.229 231.110 C 175.493 229.484,176.120 228.543,177.158 228.213 C 177.535 228.094,178.330 227.232,178.926 226.298 C 179.521 225.364,180.748 223.790,181.653 222.800 C 185.099 219.031,187.202 216.331,187.444 215.367 C 187.601 214.740,188.280 214.069,189.267 213.566 C 190.132 213.125,190.937 212.457,191.057 212.082 C 191.818 209.703,192.147 209.263,193.601 208.692 C 194.881 208.190,195.220 207.811,195.576 206.489 C 196.084 204.604,196.583 204.118,198.200 203.935 C 199.248 203.817,199.417 203.623,199.531 202.400 C 199.603 201.630,199.946 200.685,200.293 200.300 C 200.640 199.915,200.834 199.600,200.724 199.600 C 200.614 199.600,200.226 199.929,199.862 200.331 M170.367 206.800 C 170.240 207.562,169.919 207.832,169.019 207.934 C 168.369 208.008,167.610 208.368,167.332 208.734 C 166.538 209.778,166.715 210.085,167.600 209.200 C 168.040 208.760,168.738 208.400,169.151 208.400 C 170.120 208.400,170.912 207.438,170.700 206.519 C 170.574 205.972,170.495 206.039,170.367 206.800 M165.684 212.640 C 165.401 212.948,164.716 213.200,164.164 213.200 C 163.374 213.200,163.033 213.521,162.570 214.700 C 161.676 216.976,161.409 217.359,160.357 217.877 C 159.825 218.139,158.851 219.112,158.194 220.040 C 157.537 220.968,156.168 222.560,155.150 223.579 C 154.133 224.597,153.180 225.980,153.033 226.652 C 152.842 227.518,152.305 228.131,151.182 228.762 C 150.016 229.418,149.600 229.907,149.600 230.626 C 149.600 231.162,149.240 231.960,148.800 232.400 C 147.914 233.286,148.054 233.413,149.226 232.786 C 149.723 232.520,150.000 231.949,150.000 231.191 C 150.000 230.247,150.323 229.806,151.613 228.992 C 152.657 228.333,153.302 227.591,153.444 226.887 C 153.713 225.547,154.277 224.796,155.695 223.889 C 156.297 223.503,157.148 222.485,157.587 221.626 C 158.025 220.767,159.152 219.548,160.092 218.917 C 161.410 218.032,161.971 217.294,162.550 215.685 C 163.207 213.858,163.437 213.600,164.401 213.600 C 165.007 213.600,165.730 213.326,166.008 212.990 C 166.656 212.209,166.368 211.898,165.684 212.640 M146.081 234.102 C 145.852 234.378,145.547 235.071,145.404 235.642 C 145.242 236.286,144.632 236.923,143.793 237.323 C 142.769 237.811,142.321 238.370,141.943 239.631 C 141.527 241.020,141.166 241.414,139.759 242.018 C 138.686 242.477,137.977 243.079,137.810 243.670 C 137.158 245.973,136.667 246.800,135.951 246.800 C 135.089 246.800,133.587 248.157,133.627 248.900 C 133.642 249.175,133.841 249.014,134.070 248.541 C 134.298 248.069,134.998 247.580,135.625 247.455 C 136.739 247.232,138.000 245.547,138.000 244.282 C 138.000 243.524,139.171 242.562,140.468 242.254 C 141.311 242.054,141.673 241.588,142.188 240.036 C 142.746 238.356,143.070 237.979,144.420 237.438 C 145.735 236.913,146.000 236.618,146.000 235.683 C 146.000 235.065,146.216 234.344,146.480 234.080 C 146.744 233.816,146.856 233.600,146.729 233.600 C 146.602 233.600,146.310 233.826,146.081 234.102 M170.454 235.873 C 170.409 236.938,170.220 237.174,169.300 237.313 L 168.200 237.480 169.313 237.540 C 170.535 237.606,170.963 236.980,170.686 235.529 C 170.548 234.807,170.497 234.884,170.454 235.873 M166.260 240.903 C 166.040 241.779,165.754 242.000,164.841 242.000 C 164.212 242.000,163.451 242.299,163.149 242.665 C 162.653 243.267,162.684 243.286,163.474 242.865 C 163.954 242.609,164.713 242.400,165.160 242.400 C 166.014 242.400,166.963 241.089,166.694 240.281 C 166.607 240.020,166.411 240.300,166.260 240.903 M162.432 244.246 C 162.389 245.382,161.025 247.055,159.906 247.344 C 159.277 247.506,158.669 248.315,157.918 249.992 C 157.144 251.717,156.441 252.639,155.454 253.221 C 154.585 253.734,153.837 254.624,153.439 255.618 C 153.091 256.488,152.639 257.200,152.434 257.200 C 151.704 257.200,149.600 259.284,149.600 260.007 C 149.600 260.411,149.126 261.115,148.546 261.571 C 147.349 262.513,147.779 262.710,149.065 261.809 C 149.529 261.484,150.028 260.743,150.174 260.161 C 150.472 258.973,151.004 258.347,152.307 257.650 C 152.797 257.388,153.542 256.498,153.962 255.674 C 154.383 254.849,155.211 253.915,155.803 253.599 C 156.428 253.264,157.371 252.046,158.057 250.688 C 158.821 249.174,159.707 248.074,160.575 247.562 C 161.948 246.752,163.044 244.849,162.672 243.920 C 162.557 243.634,162.449 243.780,162.432 244.246 M131.057 252.891 C 129.724 253.244,129.404 253.565,128.703 255.253 C 128.051 256.820,127.646 257.268,126.646 257.522 C 125.632 257.780,125.287 258.171,124.795 259.619 C 124.462 260.599,124.031 261.670,123.838 262.000 C 123.570 262.458,123.652 262.445,124.185 261.944 C 124.569 261.584,125.005 260.693,125.154 259.965 C 125.359 258.961,125.802 258.442,126.984 257.820 C 128.006 257.283,128.675 256.586,128.925 255.800 C 129.428 254.221,129.949 253.600,130.773 253.600 C 131.144 253.600,131.796 253.336,132.224 253.013 C 133.110 252.342,133.124 252.344,131.057 252.891 M121.700 262.812 C 121.078 263.063,120.800 263.508,120.800 264.256 C 120.800 264.850,120.502 265.666,120.138 266.069 C 119.330 266.961,119.695 267.048,120.571 266.171 C 120.917 265.826,121.200 265.111,121.200 264.584 C 121.200 263.950,121.572 263.424,122.300 263.029 C 123.506 262.375,123.128 262.238,121.700 262.812 M146.484 262.900 C 146.257 263.175,146.010 263.936,145.935 264.591 C 145.846 265.378,145.461 265.952,144.800 266.285 C 144.116 266.629,144.012 266.790,144.471 266.794 C 145.478 266.803,146.400 265.683,146.400 264.451 C 146.400 263.851,146.616 263.144,146.880 262.880 C 147.144 262.616,147.256 262.400,147.129 262.400 C 147.002 262.400,146.712 262.625,146.484 262.900 M117.721 267.279 C 117.153 267.553,116.800 268.139,116.721 268.939 C 116.629 269.876,116.200 270.443,114.952 271.280 C 113.820 272.038,113.227 272.765,113.060 273.600 C 112.894 274.432,112.366 275.083,111.391 275.658 C 110.594 276.128,109.597 277.222,109.130 278.138 C 108.670 279.039,107.426 280.592,106.364 281.588 C 105.217 282.665,104.336 283.887,104.190 284.600 C 103.985 285.605,104.074 285.530,104.736 284.139 C 105.171 283.225,105.894 282.361,106.344 282.218 C 107.216 281.941,109.600 278.968,109.600 278.157 C 109.600 277.890,110.185 277.204,110.900 276.633 C 113.109 274.870,113.549 274.345,113.810 273.153 C 113.950 272.519,114.237 272.000,114.448 272.000 C 115.402 272.000,117.207 270.168,117.431 268.973 C 117.574 268.215,118.025 267.519,118.536 267.272 C 119.011 267.042,119.220 266.854,119.000 266.854 C 118.780 266.854,118.205 267.045,117.721 267.279 M142.480 267.280 C 142.216 267.544,142.000 268.289,142.000 268.936 C 142.000 270.151,141.082 271.165,139.962 271.187 C 139.097 271.205,137.993 272.488,138.032 273.431 C 138.057 274.050,138.138 274.005,138.447 273.200 C 138.672 272.616,139.532 271.867,140.516 271.400 C 141.965 270.712,142.217 270.405,142.322 269.200 C 142.390 268.430,142.739 267.575,143.099 267.300 C 143.459 267.025,143.575 266.800,143.356 266.800 C 143.138 266.800,142.744 267.016,142.480 267.280 M137.232 275.140 C 136.964 275.641,136.305 275.997,135.503 276.075 C 134.566 276.165,134.174 276.422,134.089 277.000 C 133.981 277.731,134.008 277.740,134.405 277.100 C 134.644 276.715,135.253 276.400,135.758 276.400 C 136.685 276.400,138.325 274.992,137.897 274.563 C 137.769 274.436,137.470 274.696,137.232 275.140 M133.139 279.597 C 132.671 280.701,132.071 281.327,131.083 281.740 C 129.779 282.284,128.298 284.831,128.922 285.455 C 129.033 285.566,129.249 285.088,129.402 284.392 C 129.608 283.455,130.032 282.979,131.033 282.560 C 132.323 282.022,134.231 279.266,133.923 278.389 C 133.856 278.195,133.503 278.739,133.139 279.597 M103.400 286.400 C 103.264 286.620,102.735 286.800,102.225 286.800 C 101.715 286.800,101.060 287.115,100.768 287.500 C 100.318 288.096,100.322 288.125,100.799 287.700 C 101.108 287.425,101.845 287.200,102.437 287.200 C 103.030 287.200,103.618 286.930,103.745 286.600 C 104.004 285.923,103.777 285.791,103.400 286.400 M128.219 286.369 C 128.094 286.572,127.435 286.861,126.755 287.010 C 125.781 287.224,125.351 287.662,124.726 289.074 C 124.224 290.209,123.431 291.163,122.564 291.674 C 121.748 292.156,121.098 292.910,120.955 293.541 C 120.824 294.123,120.240 295.031,119.658 295.559 C 118.609 296.509,118.609 296.512,119.600 295.922 C 120.150 295.594,120.956 294.677,121.391 293.885 C 121.826 293.093,122.585 292.262,123.077 292.038 C 123.569 291.814,124.431 290.723,124.992 289.615 C 125.554 288.507,126.261 287.600,126.562 287.600 C 127.114 287.600,129.241 286.038,128.724 286.013 C 128.572 286.006,128.345 286.166,128.219 286.369 M99.299 290.790 C 99.040 291.205,98.330 291.602,97.721 291.672 C 96.889 291.768,96.525 292.098,96.254 293.000 C 95.557 295.319,95.049 296.016,93.829 296.330 C 92.902 296.568,92.491 296.984,92.155 298.023 C 91.897 298.822,91.141 299.789,90.355 300.327 C 89.610 300.837,88.861 301.627,88.692 302.083 C 88.523 302.539,87.848 303.523,87.192 304.270 C 86.536 305.017,86.000 305.807,86.000 306.026 C 86.000 306.245,85.145 307.289,84.100 308.346 C 83.055 309.403,81.603 311.096,80.872 312.109 L 79.545 313.950 79.540 320.995 C 79.535 327.868,79.753 329.200,80.878 329.200 C 81.086 329.200,80.974 328.917,80.629 328.571 C 79.415 327.358,79.726 314.238,80.998 312.965 C 81.547 312.416,82.270 311.438,82.605 310.791 C 82.939 310.144,83.769 309.206,84.448 308.707 C 85.127 308.208,86.052 307.019,86.503 306.064 C 86.954 305.108,87.756 304.129,88.286 303.888 C 88.838 303.637,89.343 302.987,89.466 302.370 C 89.591 301.744,90.325 300.812,91.218 300.146 C 92.063 299.516,92.856 298.600,92.982 298.112 C 93.107 297.623,93.612 297.017,94.105 296.765 C 95.331 296.137,96.380 294.767,96.391 293.780 C 96.403 292.729,97.136 292.000,98.184 292.000 C 98.911 292.000,100.286 290.552,99.913 290.179 C 99.834 290.101,99.558 290.376,99.299 290.790 M117.590 297.426 C 117.376 297.990,117.200 298.610,117.200 298.803 C 117.200 298.997,116.800 299.435,116.311 299.777 C 115.822 300.120,115.597 300.396,115.811 300.391 C 116.692 300.371,117.922 298.915,118.086 297.700 C 118.297 296.136,118.118 296.037,117.590 297.426 M113.600 301.581 C 113.600 302.960,112.775 304.231,111.402 304.971 C 110.621 305.391,109.956 306.120,109.806 306.719 C 109.664 307.284,109.120 308.255,108.596 308.877 C 107.518 310.159,107.817 312.060,109.216 312.808 C 109.687 313.061,144.363 313.200,206.725 313.200 C 283.660 313.200,303.587 313.303,303.914 313.700 C 304.640 314.582,305.200 318.819,305.200 323.438 L 305.200 327.929 303.965 328.968 L 302.730 330.007 193.265 329.884 C 133.059 329.816,83.260 329.638,82.600 329.487 C 81.940 329.337,82.159 329.435,83.086 329.707 C 84.013 329.978,85.007 330.524,85.294 330.919 C 86.079 331.998,300.412 332.208,302.055 331.132 C 302.616 330.764,303.643 329.895,304.338 329.201 L 305.600 327.938 305.600 323.189 C 305.600 318.039,305.066 314.604,304.093 313.500 C 303.509 312.837,298.358 312.800,206.532 312.800 L 109.588 312.800 108.829 311.552 L 108.070 310.304 109.535 308.252 C 110.341 307.123,111.675 305.553,112.500 304.762 C 113.817 303.500,114.702 300.800,113.800 300.800 C 113.690 300.800,113.600 301.152,113.600 301.581 " stroke="none" fill="#dc7c7c" fill-rule="evenodd"></path><path id="path4" d="M93.278 62.685 C 90.883 63.143,90.772 77.890,93.154 79.078 C 93.509 79.255,134.480 79.490,184.200 79.600 C 233.920 79.710,274.825 79.946,275.100 80.124 C 276.361 80.940,275.253 83.538,273.189 84.606 C 272.419 85.004,271.651 86.006,270.915 87.573 C 270.034 89.447,269.573 89.985,268.700 90.160 C 267.581 90.384,266.708 91.758,266.230 94.049 C 266.065 94.835,265.693 95.161,264.743 95.351 C 262.965 95.707,262.400 96.298,262.400 97.800 C 262.400 99.299,261.835 99.893,260.071 100.246 C 258.553 100.549,258.113 101.032,257.935 102.587 C 257.841 103.416,257.378 104.056,256.400 104.708 C 255.624 105.225,254.695 106.346,254.316 107.222 C 253.924 108.128,253.184 109.007,252.584 109.280 C 252.007 109.543,251.192 110.432,250.772 111.256 C 250.351 112.080,249.421 113.201,248.704 113.749 C 247.987 114.296,246.875 115.715,246.233 116.903 C 245.591 118.090,244.553 119.357,243.925 119.717 C 243.262 120.098,242.461 121.125,242.013 122.169 C 241.400 123.599,240.976 124.035,239.933 124.306 C 238.818 124.594,238.499 124.970,237.794 126.823 C 237.077 128.706,236.806 129.018,235.783 129.135 C 234.144 129.323,233.600 129.884,233.600 131.387 C 233.600 132.914,232.663 133.881,231.005 134.067 C 229.967 134.182,229.778 134.398,229.568 135.697 C 229.396 136.765,228.706 137.862,227.163 139.520 C 224.503 142.381,220.733 146.830,218.600 149.629 C 217.720 150.783,216.233 152.487,215.296 153.416 C 214.359 154.344,213.400 155.655,213.165 156.329 C 212.898 157.095,212.197 157.834,211.296 158.302 C 210.372 158.782,209.701 159.501,209.427 160.307 C 208.887 161.898,208.290 162.490,206.682 163.033 C 205.689 163.369,205.370 163.729,205.268 164.633 C 205.089 166.215,203.721 167.600,202.338 167.600 C 201.440 167.600,201.165 167.820,200.966 168.700 C 200.177 172.191,198.864 174.599,197.684 174.721 C 196.510 174.843,196.052 175.398,195.211 177.719 C 194.960 178.411,194.290 179.054,193.456 179.402 C 192.563 179.776,191.867 180.478,191.396 181.483 C 191.005 182.317,190.036 183.630,189.243 184.400 C 186.936 186.639,184.756 189.172,182.262 192.511 C 180.984 194.222,179.503 195.907,178.969 196.257 C 178.397 196.632,178.000 197.278,178.000 197.836 C 178.000 198.461,177.628 198.972,176.899 199.349 C 175.489 200.078,174.573 201.137,174.259 202.400 C 174.109 203.006,173.497 203.636,172.706 204.000 C 171.852 204.393,171.282 205.014,171.054 205.800 C 170.479 207.786,170.233 208.084,168.787 208.552 C 167.639 208.923,167.296 209.312,166.800 210.806 C 165.972 213.299,165.716 213.600,164.426 213.600 C 163.431 213.600,163.213 213.843,162.550 215.685 C 161.971 217.294,161.410 218.032,160.092 218.917 C 159.152 219.548,158.025 220.767,157.587 221.626 C 157.148 222.485,156.297 223.503,155.695 223.889 C 154.277 224.796,153.713 225.547,153.444 226.887 C 153.302 227.591,152.657 228.333,151.613 228.992 C 150.320 229.808,150.000 230.246,150.000 231.197 C 150.000 232.220,149.736 232.511,148.100 233.292 C 146.470 234.071,146.182 234.387,146.074 235.514 C 145.967 236.620,145.702 236.926,144.394 237.449 C 143.073 237.978,142.743 238.364,142.188 240.036 C 141.673 241.588,141.311 242.054,140.468 242.254 C 139.171 242.562,138.000 243.524,138.000 244.282 C 138.000 245.563,136.739 247.232,135.598 247.460 C 134.646 247.651,134.309 248.036,133.777 249.547 C 132.538 253.058,132.437 253.213,131.213 253.457 C 129.843 253.731,129.459 254.125,128.925 255.800 C 128.675 256.586,128.006 257.283,126.984 257.820 C 125.850 258.417,125.357 258.972,125.176 259.855 C 124.826 261.568,124.550 261.907,122.773 262.814 C 121.600 263.412,121.200 263.861,121.200 264.580 C 121.200 265.721,120.507 266.493,118.872 267.170 C 117.999 267.532,117.611 268.014,117.434 268.961 C 117.207 270.168,115.407 272.000,114.448 272.000 C 114.237 272.000,113.950 272.519,113.810 273.153 C 113.549 274.345,113.109 274.870,110.900 276.633 C 110.185 277.204,109.600 277.870,109.600 278.114 C 109.600 278.932,107.463 281.650,106.380 282.210 C 105.672 282.577,105.001 283.519,104.407 284.983 C 103.630 286.898,103.361 287.200,102.434 287.200 C 101.260 287.200,100.400 287.843,100.400 288.720 C 100.400 290.027,99.097 292.000,98.234 292.000 C 97.140 292.000,96.403 292.712,96.391 293.780 C 96.380 294.767,95.331 296.137,94.105 296.765 C 93.612 297.017,93.107 297.623,92.982 298.112 C 92.856 298.600,92.063 299.516,91.218 300.146 C 90.325 300.812,89.591 301.744,89.466 302.370 C 89.343 302.987,88.838 303.637,88.286 303.888 C 87.756 304.129,86.954 305.108,86.503 306.064 C 86.052 307.019,85.127 308.208,84.448 308.707 C 83.769 309.206,82.939 310.144,82.605 310.791 C 82.270 311.438,81.547 312.416,80.998 312.965 C 79.956 314.008,79.417 326.861,80.354 328.339 C 81.395 329.981,80.705 329.971,194.269 329.986 L 302.739 330.000 303.969 328.964 L 305.200 327.929 305.200 323.438 C 305.200 318.819,304.640 314.582,303.914 313.700 C 303.587 313.303,283.660 313.200,206.725 313.200 C 144.363 313.200,109.687 313.061,109.216 312.808 C 107.817 312.060,107.518 310.159,108.596 308.877 C 109.120 308.255,109.664 307.284,109.806 306.719 C 109.956 306.120,110.621 305.391,111.402 304.971 C 112.744 304.248,113.600 302.963,113.600 301.671 C 113.600 301.250,114.259 300.670,115.281 300.190 C 116.507 299.614,117.076 299.049,117.382 298.105 C 117.624 297.357,118.412 296.394,119.246 295.827 C 120.163 295.204,120.777 294.417,120.925 293.674 C 121.080 292.900,121.629 292.226,122.546 291.685 C 123.431 291.163,124.220 290.217,124.726 289.074 C 125.345 287.674,125.785 287.223,126.732 287.015 C 128.198 286.693,128.515 286.308,129.155 284.069 C 129.551 282.686,129.924 282.224,131.011 281.770 C 132.474 281.158,133.071 280.313,133.811 277.800 C 134.205 276.465,134.475 276.179,135.442 276.073 C 136.747 275.930,137.978 274.621,137.991 273.362 C 138.001 272.432,139.151 271.207,140.031 271.187 C 141.090 271.164,141.937 270.164,142.069 268.782 C 142.172 267.696,142.453 267.295,143.400 266.882 C 145.586 265.928,145.798 265.727,146.000 264.423 C 146.147 263.475,146.627 262.840,147.800 262.047 C 148.683 261.451,149.456 260.576,149.526 260.097 C 149.650 259.244,151.701 257.200,152.434 257.200 C 152.639 257.200,153.091 256.488,153.439 255.618 C 153.837 254.624,154.585 253.734,155.454 253.221 C 156.428 252.646,157.153 251.707,157.914 250.034 C 158.695 248.317,159.323 247.515,160.189 247.131 C 160.847 246.839,161.614 246.105,161.893 245.500 C 162.172 244.895,162.631 243.905,162.912 243.300 C 163.289 242.492,163.765 242.167,164.704 242.075 C 165.829 241.966,166.039 241.749,166.450 240.275 C 166.994 238.327,168.092 237.200,169.444 237.200 C 170.230 237.200,170.400 236.996,170.400 236.054 C 170.400 234.544,171.685 232.963,173.152 232.670 C 174.062 232.488,174.390 232.154,174.600 231.200 C 174.749 230.522,175.589 229.119,176.466 228.083 C 177.343 227.048,178.632 225.514,179.330 224.676 C 180.029 223.838,181.924 221.678,183.542 219.876 C 185.160 218.074,186.739 216.010,187.052 215.289 C 187.396 214.494,188.164 213.718,189.002 213.318 C 189.980 212.852,190.519 212.241,190.843 211.230 C 191.444 209.354,192.227 208.502,193.631 208.193 C 194.519 207.998,194.867 207.620,195.170 206.523 C 195.700 204.605,196.694 203.600,198.062 203.600 C 199.068 203.600,199.200 203.456,199.200 202.358 C 199.200 201.616,199.603 200.636,200.200 199.927 C 200.750 199.273,201.200 198.414,201.200 198.018 C 201.200 197.593,201.696 197.091,202.410 196.796 C 203.709 196.258,205.015 194.698,205.254 193.400 C 205.334 192.960,205.978 192.346,206.684 192.035 C 207.601 191.631,208.251 190.873,208.956 189.384 C 209.679 187.856,210.262 187.187,211.137 186.882 C 211.880 186.623,212.575 185.951,212.976 185.106 C 213.331 184.359,214.816 182.499,216.275 180.974 C 217.735 179.448,219.436 177.435,220.056 176.500 C 220.675 175.565,221.343 174.800,221.538 174.800 C 222.247 174.800,225.600 169.800,225.600 168.744 C 225.600 167.923,225.846 167.626,226.700 167.416 C 228.543 166.963,229.490 166.112,229.761 164.665 C 229.982 163.490,230.220 163.248,231.366 163.033 C 232.744 162.774,233.416 161.791,233.681 159.641 C 233.809 158.607,234.376 158.179,236.094 157.818 C 236.876 157.653,237.255 157.276,237.422 156.494 C 237.874 154.377,238.359 153.675,239.673 153.240 C 240.691 152.904,241.266 152.292,242.140 150.617 C 242.767 149.416,243.894 147.966,244.644 147.394 C 245.394 146.822,246.348 145.689,246.764 144.877 C 247.180 144.065,248.095 142.977,248.797 142.461 C 249.499 141.944,250.317 140.938,250.616 140.225 C 250.914 139.511,251.786 138.448,252.554 137.863 C 253.549 137.103,253.985 136.428,254.075 135.509 C 254.184 134.381,254.422 134.144,255.990 133.601 C 257.477 133.086,257.849 132.746,258.190 131.591 C 258.769 129.629,259.052 129.296,260.398 129.001 C 261.370 128.787,261.673 128.435,262.062 127.070 C 262.690 124.866,263.478 124.000,264.854 124.000 C 265.765 124.000,266.030 123.786,266.217 122.900 C 266.715 120.539,267.528 119.279,268.724 119.017 C 269.622 118.819,270.061 118.365,270.596 117.080 C 271.908 113.929,272.090 113.686,273.562 113.108 C 274.752 112.640,275.128 112.217,275.522 110.901 C 275.896 109.656,276.362 109.091,277.505 108.500 C 278.492 107.989,279.046 107.399,279.136 106.763 C 279.311 105.533,280.148 104.602,281.629 103.988 C 282.518 103.620,282.800 103.241,282.800 102.413 C 282.800 101.189,283.587 100.374,285.500 99.617 C 286.440 99.245,286.800 98.849,286.800 98.184 C 286.800 96.646,287.233 96.000,288.795 95.202 C 289.816 94.682,290.372 94.083,290.541 93.319 C 290.830 92.020,291.700 90.936,293.434 89.711 C 294.113 89.232,295.103 87.976,295.634 86.920 C 296.741 84.719,297.062 84.415,298.283 84.406 C 299.024 84.401,299.297 83.967,299.982 81.700 C 300.943 78.521,301.062 78.332,302.500 77.700 L 303.600 77.217 303.600 71.498 C 303.600 64.988,303.397 64.414,300.647 63.165 C 299.095 62.461,96.903 61.992,93.278 62.685 M299.600 63.191 C 300.540 63.784,300.679 75.793,299.792 79.779 C 299.152 82.655,299.088 82.759,297.877 82.877 C 296.656 82.997,296.451 83.235,295.199 86.000 C 295.050 86.330,294.355 86.876,293.656 87.214 C 292.863 87.596,292.060 88.484,291.521 89.573 C 291.046 90.533,290.151 91.607,289.531 91.959 C 288.912 92.312,288.404 92.708,288.403 92.840 C 288.401 92.972,287.863 93.872,287.207 94.840 C 286.551 95.808,285.901 97.185,285.763 97.900 C 285.589 98.796,285.286 99.200,284.786 99.200 C 283.697 99.200,281.733 101.036,281.479 102.292 C 281.330 103.031,280.780 103.654,279.831 104.161 C 279.048 104.580,278.069 105.495,277.656 106.195 C 276.761 107.713,275.685 108.971,273.000 111.641 C 271.900 112.735,270.808 114.196,270.573 114.888 C 270.158 116.112,269.708 116.526,268.334 116.946 C 267.968 117.057,267.182 118.230,266.589 119.552 C 265.713 121.505,265.294 122.004,264.355 122.210 C 263.720 122.349,263.200 122.641,263.200 122.858 C 263.200 123.076,262.750 123.843,262.200 124.564 C 261.650 125.286,261.200 126.354,261.200 126.938 C 261.200 127.841,261.028 128.000,260.049 128.000 C 258.647 128.000,257.931 128.788,257.386 130.930 C 257.033 132.319,256.770 132.608,255.586 132.914 C 253.696 133.402,253.339 133.771,253.059 135.524 C 252.856 136.789,252.596 137.113,251.449 137.528 C 250.496 137.872,249.869 138.475,249.385 139.511 C 249.003 140.330,248.082 141.630,247.339 142.400 C 244.362 145.484,242.645 147.467,241.799 148.800 C 241.310 149.570,240.179 150.951,239.286 151.869 C 237.425 153.781,236.800 154.808,236.800 155.956 C 236.800 156.561,236.452 156.829,235.414 157.024 C 233.672 157.351,233.103 158.034,232.822 160.135 C 232.623 161.629,232.476 161.814,231.400 161.933 C 229.723 162.120,228.800 163.083,228.800 164.646 C 228.800 165.858,228.659 166.008,227.100 166.454 C 224.791 167.114,224.464 167.428,224.322 169.120 C 224.220 170.344,223.950 170.720,222.657 171.443 C 221.678 171.990,220.856 172.871,220.408 173.853 C 220.020 174.704,218.316 176.840,216.622 178.600 C 214.928 180.360,212.995 182.700,212.328 183.800 C 211.660 184.900,210.548 186.163,209.857 186.606 C 209.035 187.134,208.477 187.907,208.245 188.841 C 207.963 189.977,207.554 190.426,206.245 191.035 C 204.936 191.644,204.518 192.103,204.197 193.283 C 203.714 195.058,203.319 195.489,202.013 195.666 C 201.016 195.801,200.393 196.711,199.732 199.000 C 199.462 199.935,199.122 200.230,198.193 200.335 C 196.651 200.510,196.000 201.072,196.000 202.226 C 196.000 203.464,194.527 205.906,193.602 206.199 C 192.739 206.473,191.457 208.028,190.486 209.978 C 190.109 210.736,189.260 211.650,188.600 212.008 C 187.940 212.367,187.040 213.297,186.600 214.074 C 186.160 214.851,185.215 215.979,184.500 216.579 C 183.785 217.180,183.200 217.917,183.200 218.217 C 183.200 218.517,182.494 219.330,181.631 220.023 C 180.768 220.716,179.852 221.792,179.595 222.413 C 179.337 223.034,178.455 223.987,177.633 224.531 C 176.677 225.163,176.001 226.000,175.756 226.853 C 175.501 227.743,174.813 228.564,173.687 229.320 C 172.680 229.996,172.000 230.764,172.000 231.224 C 172.000 231.648,170.763 233.234,169.251 234.749 C 167.288 236.716,166.400 237.936,166.144 239.018 C 165.849 240.267,165.541 240.613,164.393 240.985 C 163.275 241.348,162.806 241.851,162.019 243.528 C 161.249 245.171,160.777 245.686,159.819 245.933 C 158.889 246.172,158.386 246.695,157.697 248.138 C 157.200 249.179,156.194 250.556,155.462 251.199 C 154.730 251.842,153.607 253.139,152.966 254.082 C 152.325 255.025,150.945 256.625,149.900 257.638 C 148.794 258.711,148.000 259.840,148.000 260.340 C 148.000 260.813,147.826 261.200,147.614 261.200 C 146.754 261.200,144.400 263.715,144.400 264.633 C 144.400 265.333,143.995 265.791,142.865 266.367 C 141.766 266.928,141.223 267.526,140.951 268.475 C 140.679 269.427,140.163 269.994,139.117 270.489 C 137.699 271.160,137.541 271.403,137.030 273.700 C 136.832 274.586,136.563 274.800,135.641 274.800 C 134.253 274.800,133.728 275.382,133.073 277.646 C 132.653 279.097,132.353 279.441,131.231 279.763 C 129.926 280.137,128.000 283.250,128.000 284.984 C 128.000 285.293,127.595 285.660,127.100 285.798 C 125.015 286.382,124.370 286.966,123.945 288.652 C 123.596 290.039,123.310 290.400,122.400 290.600 C 120.988 290.910,120.166 291.837,119.807 293.524 C 119.610 294.450,119.207 294.969,118.464 295.252 C 116.853 295.864,116.000 296.809,116.000 297.982 C 116.000 298.840,115.659 299.206,114.200 299.915 C 112.787 300.601,112.400 301.003,112.400 301.779 C 112.400 302.807,111.175 304.227,109.955 304.614 C 109.568 304.737,108.956 305.613,108.594 306.560 C 108.118 307.808,107.559 308.462,106.568 308.935 C 105.148 309.612,104.735 311.046,105.577 312.377 C 106.611 314.010,105.187 313.987,205.600 313.999 C 258.510 314.006,302.181 314.113,302.647 314.238 C 304.283 314.677,305.245 327.201,303.739 328.451 C 302.637 329.366,87.267 329.479,83.500 328.567 L 80.800 327.914 80.800 321.257 L 80.800 314.600 82.166 313.510 C 82.917 312.911,83.648 311.893,83.790 311.248 C 83.956 310.488,84.598 309.711,85.611 309.040 C 86.650 308.353,87.289 307.567,87.513 306.702 C 87.752 305.777,88.305 305.145,89.425 304.518 C 90.646 303.834,91.045 303.340,91.200 302.318 C 91.366 301.224,91.721 300.841,93.289 300.063 C 94.833 299.297,95.223 298.883,95.427 297.797 C 95.695 296.368,96.874 295.051,98.260 294.632 C 98.870 294.447,99.407 293.593,100.110 291.686 C 101.017 289.226,101.205 288.989,102.347 288.875 C 103.437 288.766,103.733 288.452,104.697 286.387 C 105.547 284.567,106.045 283.971,106.868 283.788 C 107.638 283.617,108.171 283.048,108.782 281.748 C 109.251 280.751,110.150 279.647,110.794 279.278 C 111.435 278.910,112.163 278.160,112.413 277.612 C 112.872 276.605,114.548 274.520,117.300 271.534 C 118.282 270.468,118.800 269.522,118.800 268.796 C 118.800 267.967,119.036 267.627,119.735 267.452 C 121.226 267.078,122.717 265.689,122.997 264.413 C 123.139 263.766,123.590 263.130,123.998 263.001 C 124.407 262.871,125.421 261.873,126.253 260.782 C 127.084 259.692,127.904 258.800,128.075 258.800 C 128.247 258.800,128.830 257.924,129.373 256.854 C 130.137 255.345,130.626 254.855,131.552 254.670 C 132.579 254.464,132.868 254.096,133.618 252.038 C 134.346 250.041,134.662 249.624,135.522 249.522 C 136.654 249.388,138.712 246.490,138.769 244.949 C 138.790 244.375,139.224 243.929,140.100 243.583 C 142.036 242.816,142.713 242.089,143.001 240.464 C 143.217 239.244,143.538 238.867,144.929 238.200 C 146.282 237.551,146.679 237.102,147.028 235.826 C 147.371 234.567,147.721 234.163,148.774 233.809 C 150.313 233.291,151.200 232.228,151.200 230.903 C 151.200 230.217,151.555 229.810,152.500 229.413 C 153.215 229.113,154.146 228.267,154.569 227.533 C 154.993 226.800,156.118 225.326,157.069 224.257 C 158.021 223.188,158.800 222.108,158.801 221.857 C 158.802 221.606,159.477 221.040,160.301 220.600 C 161.458 219.982,161.982 219.330,162.600 217.737 C 163.221 216.136,163.778 215.446,165.088 214.654 C 166.158 214.008,166.854 213.262,166.988 212.617 C 167.105 212.058,167.289 211.166,167.399 210.635 C 167.557 209.870,167.933 209.614,169.225 209.396 C 170.890 209.115,171.047 208.925,171.851 206.229 C 172.090 205.425,172.554 204.963,173.326 204.756 C 174.950 204.322,175.600 203.652,175.600 202.413 C 175.600 201.158,176.516 200.223,178.117 199.842 C 178.732 199.696,179.292 199.357,179.363 199.088 C 179.944 196.877,180.351 196.181,181.400 195.604 C 182.060 195.241,182.994 194.199,183.476 193.288 C 184.380 191.579,185.355 190.399,189.304 186.231 C 190.572 184.894,191.828 183.200,192.097 182.467 C 192.423 181.574,193.017 180.953,193.891 180.588 C 195.186 180.047,195.725 179.225,196.180 177.100 C 196.326 176.418,196.678 175.998,197.108 175.994 C 198.664 175.981,199.740 174.993,200.369 173.000 C 200.944 171.177,201.124 170.982,202.400 170.800 C 203.659 170.620,203.813 170.460,203.932 169.214 C 204.084 167.610,205.372 166.142,206.805 165.940 C 207.540 165.837,207.832 165.522,207.923 164.737 C 207.998 164.091,208.994 162.679,210.463 161.137 C 211.792 159.742,213.153 158.060,213.488 157.400 C 213.823 156.740,214.931 155.354,215.949 154.319 C 219.454 150.759,220.800 149.176,220.800 148.615 C 220.800 148.305,221.509 147.545,222.375 146.926 C 223.284 146.276,224.200 145.169,224.540 144.307 C 224.913 143.364,225.547 142.637,226.265 142.330 C 227.985 141.595,228.800 140.773,228.800 139.771 C 228.800 139.259,229.495 138.142,230.400 137.200 C 231.280 136.284,232.000 135.350,232.000 135.125 C 232.000 134.900,232.450 134.361,233.000 133.929 C 233.632 133.431,234.092 132.565,234.251 131.571 C 234.464 130.241,234.652 130.000,235.477 130.000 C 237.071 130.000,237.942 129.285,238.462 127.552 C 238.731 126.653,239.232 125.829,239.576 125.722 C 241.286 125.189,241.983 124.560,242.571 123.021 C 243.031 121.816,243.580 121.177,244.507 120.769 C 245.336 120.404,246.087 119.615,246.600 118.568 C 247.040 117.671,248.455 115.840,249.745 114.499 C 251.035 113.159,252.413 111.533,252.806 110.887 C 253.199 110.240,254.068 109.321,254.737 108.845 C 255.406 108.369,256.077 107.579,256.229 107.090 C 256.382 106.600,257.112 105.524,257.853 104.699 C 258.610 103.855,259.200 102.767,259.200 102.214 C 259.200 101.412,259.483 101.155,260.735 100.818 C 262.344 100.384,263.200 99.209,263.200 97.432 C 263.200 96.662,263.465 96.460,264.750 96.254 C 266.354 95.998,266.782 95.419,267.375 92.700 C 267.552 91.890,267.857 91.600,268.531 91.600 C 269.866 91.600,270.713 90.812,271.326 89.000 C 271.730 87.805,272.264 87.191,273.434 86.576 C 275.337 85.575,277.151 81.804,276.403 80.405 C 275.395 78.522,279.525 78.612,184.142 78.400 C 96.292 78.205,94.063 78.181,93.242 77.438 C 92.461 76.731,92.400 76.263,92.400 70.964 C 92.400 63.370,92.442 63.275,95.883 63.097 C 102.602 62.750,299.045 62.840,299.600 63.191 " stroke="none" fill="#dc8484" fill-rule="evenodd"></path></g></svg>